%
T1C.0126F095S300
X011969Y010394
X010394Y010394
X012165Y010984
X012402Y011339
X012677Y011772
X012520Y012126
X010394Y012362
X011535Y013012
X010394Y013150
X011535Y013504
X010394Y013937
X011535Y013996
X011575Y014488
X012717Y015276
X010394Y015512
X010394Y016299
X012874Y016850
X010394Y017087
X012559Y017520
X010394Y017874
X010394Y019449
X012362Y019449
X013150Y019449
X013937Y019449
X014724Y019449
X013504Y018031
X013780Y016260
X014961Y016260
X014528Y015866
X014055Y015630
X013150Y015315
X014843Y015157
X014528Y015157
X013780Y014803
X014488Y014685
X014803Y014685
X013543Y014311
X015157Y014173
X014173Y013189
X015374Y013031
X013386Y012205
X014213Y011969
X015354Y011713
X013425Y011142
X013740Y011063
X014685Y011063
X014370Y011063
X012913Y010551
X014744Y010472
X013150Y010197
X014528Y010197
X017441Y010433
X016850Y010827
X016614Y011102
X016614Y012520
X016457Y013898
X017205Y014252
X017835Y014291
X015906Y014685
X016024Y015157
X017205Y015472
X017835Y015669
X016024Y015945
X015433Y016260
X015787Y016811
X016299Y019449
X017874Y019449
X017087Y019449
X015512Y019449
X019449Y019449
X019449Y017874
X019449Y017087
X019449Y016299
X019449Y015512
X018425Y014803
X019449Y014724
X019449Y013937
X018425Y013937
X019449Y013150
X017953Y012677
X018425Y012559
X019449Y012362
X019449Y010394
X017953Y010354
T2C.01969F095S300
X013091Y015886G85X012815Y015886
X010886Y015886G85X010610Y015886
X012067Y016732G85X011634Y016732
T3C.03937F197S550
X015315Y014921
T4C.14173F035S900
X011181Y011181
X011181Y018661
X018661Y018661
X018661Y011181
M30
