*
*
G04 PADS Layout (Build Number 2008.43.1) generated Gerber (RS-274-X) file*
G04 PC Version=2.1*
*
%IN "digital MEMs USB v103.p"*%
*
%MOIN*%
*
%FSLAX35Y35*%
*
*
*
*
G04 PC Standard Apertures*
*
*
G04 Thermal Relief Aperture macro.*
%AMTER*
1,1,$1,0,0*
1,0,$1-$2,0,0*
21,0,$3,$4,0,0,45*
21,0,$3,$4,0,0,135*
%
*
*
G04 Annular Aperture macro.*
%AMANN*
1,1,$1,0,0*
1,0,$2,0,0*
%
*
*
G04 Odd Aperture macro.*
%AMODD*
1,1,$1,0,0*
1,0,$1-0.005,0,0*
%
*
*
G04 PC Custom Aperture Macros*
*
*
*
*
*
*
G04 PC Aperture Table*
*
%ADD010C,0.001*%
%ADD014R,0.06X0.06*%
%ADD018R,0.03X0.03*%
%ADD022C,0.01*%
%ADD024C,0.008*%
%ADD035R,0.01575X0.01575*%
%ADD036R,0.02X0.02*%
%ADD049C,0.01181*%
%ADD052C,0.0252*%
%ADD055C,0.00984*%
%ADD056R,0.00394X0.00394*%
%ADD057R,0.02362X0.02362*%
%ADD058C,0.15748*%
%ADD060C,0.01969*%
%ADD074R,0.01772X0.01772*%
%ADD075C,0.04331*%
%ADD076R,0.00787X0.00787*%
%ADD077R,0.22441X0.22441*%
%ADD078R,0.02992X0.02992*%
*
*
*
*
G04 PC Circuitry*
G04 Layer Name digital MEMs USB v103.p - circuitry*
%LPD*%
*
*
G04 PC Custom Flashes*
G04 Layer Name digital MEMs USB v103.p - flashes*
%LPD*%
*
*
G04 PC Circuitry*
G04 Layer Name digital MEMs USB v103.p - circuitry*
%LPD*%
*
G54D10*
G54D14*
G01X135827Y184703D03*
Y171203D03*
X167323Y171990D03*
Y185490D03*
G54D18*
X166142Y150350D02*
Y149550D01*
Y144150D02*
Y143350D01*
X165791Y159843D02*
X166591D01*
X171991D02*
X172791D01*
X144094Y182634D02*
Y181834D01*
Y176434D02*
Y175634D01*
X175984Y170516D02*
Y171316D01*
Y176716D02*
Y177516D01*
X168504Y114610D02*
Y115410D01*
Y120810D02*
Y121610D01*
X175591Y114610D02*
Y115410D01*
Y120810D02*
Y121610D01*
G54D22*
X197400Y172403D02*
Y177203D01*
G75*
G03X196478Y177472I-500J0D01*
G01X192132Y178607D02*
G03X196478Y177472I2356J133D01*
G01X192132Y178607D02*
G03X191368Y179003I-499J-28D01*
G01X179003Y191368D02*
G03X191368Y179003I7611J-4754D01*
G01X179003Y191368D02*
G03X178607Y192132I-424J265D01*
G01X177472Y196478D02*
G03X178607Y192132I1268J-1990D01*
G01X177472Y196478D02*
G03X177203Y197400I-269J422D01*
G01X172403*
G03X172134Y196478I0J-500*
G01X169598D02*
G03X172134I1268J-1990D01*
G01X169598D02*
G03X169329Y197400I-269J422D01*
G01X164529*
G03X164260Y196478I0J-500*
G01X161724D02*
G03X164260I1268J-1990D01*
G01X161724D02*
G03X161455Y197400I-269J422D01*
G01X156655*
G03X156386Y196478I0J-500*
G01X153850D02*
G03X156386I1268J-1990D01*
G01X153850D02*
G03X153581Y197400I-269J422D01*
G01X148781*
G03X148512Y196478I0J-500*
G01X145976D02*
G03X148512I1268J-1990D01*
G01X145976D02*
G03X145707Y197400I-269J422D01*
G01X140907*
G03X140638Y196478I-0J-500*
G01X138102D02*
G03X140638I1268J-1990D01*
G01X138102D02*
G03X137833Y197400I-269J422D01*
G01X133033*
G03X132764Y196478I-0J-500*
G01X130228D02*
G03X132764I1268J-1990D01*
G01X130228D02*
G03X129959Y197400I-269J422D01*
G01X125159*
G03X124890Y196478I-0J-500*
G01X122354D02*
G03X124890I1268J-1990D01*
G01X122354D02*
G03X122085Y197400I-269J422D01*
G01X105474*
G03X105205Y196478I-0J-500*
G01X106293Y194621D02*
G03X105205Y196478I-2356J-133D01*
G01X106293Y194621D02*
G03X107057Y194226I499J29D01*
G01Y179003D02*
G03Y194226I4754J7611D01*
G01Y179003D02*
G03X106293Y178607I-265J-424D01*
G01X102009Y177380D02*
G03X106293Y178607I1928J1360D01*
G01X102009Y177380D02*
G03X101100Y177092I-409J-288D01*
G01Y172515*
G03X102009Y172226I500J-0*
G01Y169506D02*
G03Y172226I1928J1360D01*
G01Y169506D02*
G03X101100Y169218I-409J-288D01*
G01Y164641*
G03X102009Y164352I500J-0*
G01X106277Y162688D02*
G03X102009Y164352I-2340J304D01*
G01X106277Y162688D02*
G03X106773Y162124I496J-64D01*
G01X108858*
X110629Y161602D02*
G03X108858Y162124I-1771J-2744D01*
G01X110629Y161602D02*
G03X111400Y162022I271J420D01*
G01Y162795*
X112500Y163895D02*
G03X111400Y162795I0J-1100D01*
G01X112500Y163895D02*
X113971D01*
G03X114285Y164784I-0J500*
G01X116339Y170588D02*
G03X114285Y164784I-0J-3265D01*
G01X116339Y170588D02*
X120669D01*
X123924Y167055D02*
G03X120669Y170588I-3255J268D01*
G01X123924Y167055D02*
G03X124776Y166661I498J-41D01*
G01X126234Y168119*
G03X126380Y168478I-354J354*
G01X130792Y169670D02*
G03X126380Y168478I-2052J-1166D01*
G01X130792Y169670D02*
G03X131727Y169917I435J247D01*
G01Y174203*
X132827Y175303D02*
G03X131727Y174203I-0J-1100D01*
G01X132827Y175303D02*
X138827D01*
X139927Y174203D02*
G03X138827Y175303I-1100J-0D01*
G01X139927Y174203D02*
Y168203D01*
X138827Y167103D02*
G03X139927Y168203I-0J1100D01*
G01X138827Y167103D02*
X132827D01*
X131850Y167697D02*
G03X132827Y167103I977J506D01*
G01X131850Y167697D02*
G03X130940Y167649I-444J-229D01*
G01X128714Y166144D02*
G03X130940Y167649I26J2360D01*
G01X128714Y166144D02*
G03X128355Y165998I-5J-500D01*
G01X125738Y163380*
G03X125596Y162954I353J-354*
G01X125608Y162795D02*
G03X125596Y162954I-1100J0D01*
G01X125608Y162795D02*
Y162022D01*
G03X126379Y161602I500J0*
G01X128150Y162124D02*
G03X126379Y161602I-0J-3266D01*
G01X128150Y162124D02*
X130906D01*
X132618Y156078D02*
G03X130906Y162124I-1712J2780D01*
G01X132618Y156078D02*
G03X132638Y155215I262J-426D01*
G01X133852Y153016D02*
G03X132638Y155215I-2356J134D01*
G01X133852Y153016D02*
G03X134351Y152488I499J-28D01*
G01X134465*
X135482Y151806D02*
G03X134465Y152488I-1017J-418D01*
G01X135482Y151806D02*
G03X135915Y151497I462J191D01*
G01X136887Y151061D02*
G03X135915Y151497I-1060J-1061D01*
G01X136887Y151061D02*
X137410Y150538D01*
G03X137769Y150391I354J353*
G01X139708Y149413D02*
G03X137770Y150391I-1913J-1382D01*
G01X139708Y149413D02*
G03X140614Y149706I406J293D01*
G01Y153473*
G03X140190Y153967I-500J0*
G01X142096Y158084D02*
G03X140190Y153967I-1545J-1785D01*
G01X142096Y158084D02*
G03X142921Y158497I327J378D01*
G01X143539Y160260D02*
G03X142921Y158497I1737J-1599D01*
G01X143539Y160260D02*
G03X143172Y161098I-367J338D01*
G01X139839*
G03X139482Y160948I0J-500*
G01Y164249D02*
G03Y160948I-1687J-1651D01*
G01Y164249D02*
G03X139839Y164098I357J349D01*
G01X147562*
G03X147919Y164249I0J500*
G01X151293D02*
G03X147920I-1687J-1651D01*
G01X151293D02*
G03X151650Y164098I357J349D01*
G01X152287*
G03X152644Y164249I-0J500*
G01X156067Y161000D02*
G03X152644Y164249I-1736J1598D01*
G01X156067Y161000D02*
G03X156435Y160161I368J-339D01*
G01X157480*
X157602Y160156D02*
G03X157480Y160161I-122J-1495D01*
G01X157602Y160156D02*
G03X158096Y160444I41J499D01*
G01X161528Y161424D02*
G03X158096Y160444I-1292J-1975D01*
G01X161528Y161424D02*
G03X161801Y161343I273J419D01*
G01X162771*
G03X163246Y161686I0J500*
G01X164223Y162440D02*
G03X163246Y161686I68J-1097D01*
G01X164223Y162440D02*
G03X164691Y162939I-32J499D01*
G01Y167396*
G03X164232Y167894I-500J-0*
G01X163223Y168990D02*
G03X164232Y167894I1100J0D01*
G01X163223Y168990D02*
Y169990D01*
G03X162723Y170490I-500J0*
G01X160850*
G03X160350Y170018I-0J-500*
G01X160140Y169430D02*
G03X160350Y170018I-888J649D01*
G01X160140Y169430D02*
G03X160077Y168956I404J-295D01*
G01X155823Y169278D02*
G03X160077Y168956I2051J-1168D01*
G01X155823Y169278D02*
G03X155858Y169698I-434J247D01*
G01X155790Y170079D02*
G03X155858Y169698I1100J-0D01*
G01X155790Y170079D02*
Y174213D01*
X156890Y175313D02*
G03X155790Y174213I-0J-1100D01*
G01X156890Y175313D02*
X159252D01*
X160352Y174213D02*
G03X159252Y175313I-1100J-0D01*
G01X160352Y174213D02*
Y173990D01*
G03X160852Y173490I500J0*
G01X162723*
G03X163223Y173990I-0J500*
G01Y174990*
X164323Y176090D02*
G03X163223Y174990I-0J-1100D01*
G01X164323Y176090D02*
X170323D01*
X171423Y174990D02*
G03X170323Y176090I-1100J0D01*
G01X171423Y174990D02*
Y173990D01*
G03X171923Y173490I500J0*
G01X173398*
G03X173737Y173623I-0J500*
G01X173757Y173641D02*
G03X173737Y173623I727J-825D01*
G01X173757Y173641D02*
G03Y174391I-331J375D01*
G01X173384Y175216D02*
G03X173757Y174391I1100J-0D01*
G01X173384Y175216D02*
Y179016D01*
X174484Y180116D02*
G03X173384Y179016I0J-1100D01*
G01X174484Y180116D02*
X177484D01*
X178584Y179016D02*
G03X177484Y180116I-1100J-0D01*
G01X178584Y179016D02*
Y175216D01*
X178212Y174391D02*
G03X178584Y175216I-728J825D01*
G01X178212Y174391D02*
G03Y173641I331J-375D01*
G01X178584Y172816D02*
G03X178212Y173641I-1100J-0D01*
G01X178584Y172816D02*
Y171913D01*
G03X178731Y171560I500J0*
G01X180396Y169894*
Y169895D02*
G03X180750Y169748I354J353D01*
G01X182626*
G03X183068Y170014I0J500*
G01X184039Y170598D02*
G03X183068Y170014I0J-1100D01*
G01X184039Y170598D02*
X186039D01*
X187139Y169498D02*
G03X186039Y170598I-1100J0D01*
G01X187139Y169498D02*
Y166998D01*
X186726Y166139D02*
G03X187139Y166998I-687J859D01*
G01X186726Y166139D02*
G03Y165357I312J-391D01*
G01X187139Y164498D02*
G03X186726Y165357I-1100J0D01*
G01X187139Y164498D02*
Y161998D01*
X186727Y161139D02*
G03X187139Y161998I-688J859D01*
G01X186727Y161139D02*
G03X186539Y160749I312J-390D01*
G01Y158936*
G03X186727Y158546I500J0*
G01X187139Y157687D02*
G03X186727Y158546I-1100J0D01*
G01X187139Y157687D02*
Y155187D01*
X186726Y154328D02*
G03X187139Y155187I-687J859D01*
G01X186726Y154328D02*
G03Y153546I312J-391D01*
G01X187139Y152687D02*
G03X186726Y153546I-1100J0D01*
G01X187139Y152687D02*
Y150187D01*
X186686Y149297D02*
G03X187139Y150187I-647J890D01*
G01X186686Y149297D02*
G03X186502Y148742I293J-405D01*
G01X182565Y146381D02*
G03X186502Y148742I1687J1650D01*
G01X182565Y146381D02*
G03X182208Y146531I-357J-350D01*
G01X178057*
G03X177703Y145678I-0J-500*
G01X177962Y145420*
G03X178321Y145273I353J353*
G01X179997Y141227D02*
G03X178321Y145273I-1651J1686D01*
G01X179997Y141227D02*
G03X179846Y140869I349J-358D01*
G01Y138857*
G03X180034Y138467I500J0*
G01X180446Y137608D02*
G03X180034Y138467I-1100J0D01*
G01X180446Y137608D02*
Y135108D01*
X180033Y134249D02*
G03X180446Y135108I-687J859D01*
G01X180033Y134249D02*
G03Y133468I312J-391D01*
G01X180446Y132608D02*
G03X180033Y133468I-1100J0D01*
G01X180446Y132608D02*
Y130108D01*
X180316Y129589D02*
G03X180446Y130108I-970J519D01*
G01X180316Y129589D02*
G03X180542Y128902I441J-235D01*
G01X181776Y127489D02*
G03X180542Y128902I-2248J-717D01*
G01X181776Y127489D02*
G03X182752Y127641I476J152D01*
G01Y128859*
G03X182564Y129250I-500J0*
G01X182152Y130108D02*
G03X182564Y129250I1100J0D01*
G01X182152Y130108D02*
Y132608D01*
X182565Y133468D02*
G03X182152Y132608I687J-860D01*
G01X182565Y133468D02*
G03Y134249I-312J390D01*
G01X182152Y135108D02*
G03X182565Y134249I1100J0D01*
G01X182152Y135108D02*
Y137608D01*
X182195Y137913D02*
G03X182152Y137608I1057J-305D01*
G01X182195Y137913D02*
G03X182158Y138282I-481J138D01*
G01X186346D02*
G03X182158I-2094J1088D01*
G01X186346D02*
G03X186309Y137913I443J-231D01*
G01X186352Y137608D02*
G03X186309Y137913I-1100J0D01*
G01X186352Y137608D02*
Y135108D01*
X185939Y134249D02*
G03X186352Y135108I-687J859D01*
G01X185939Y134249D02*
G03Y133468I312J-391D01*
G01X186352Y132608D02*
G03X185939Y133468I-1100J0D01*
G01X186352Y132608D02*
Y130108D01*
X185939Y129250D02*
G03X186352Y130108I-687J858D01*
G01X185939Y129250D02*
G03X185752Y128859I313J-391D01*
G01Y127635*
G03X185902Y127277I500J-0*
G01X182003Y124877D02*
G03X185902Y127277I2249J714D01*
G01X182003Y124877D02*
G03X181177Y125084I-477J-151D01*
G01X178473Y124660D02*
G03X181177Y125084I1055J2112D01*
G01X178473Y124660D02*
G03X178151Y124703I-223J-447D01*
X177987Y124984I-490J-98*
G01X177169Y126847D02*
G03X177987Y124984I2359J-75D01*
G01X177169Y126847D02*
G03X177088Y127136I-500J16D01*
G01X176846Y127953D02*
G03X177088Y127136I1500J-0D01*
G01X176846Y127953D02*
Y128859D01*
G03X176659Y129250I-500J0*
G01X176246Y130108D02*
G03X176659Y129250I1100J0D01*
G01X176246Y130108D02*
Y132608D01*
X176660Y133468D02*
G03X176246Y132608I686J-860D01*
G01X176660Y133468D02*
G03Y134249I-312J390D01*
G01X176246Y135108D02*
G03X176660Y134249I1100J0D01*
G01X176246Y135108D02*
Y137608D01*
X176659Y138467D02*
G03X176246Y137608I687J-859D01*
G01X176659Y138467D02*
G03X176846Y138857I-313J390D01*
G01Y140869*
G03X176696Y141227I-500J0*
G01X175987Y142939D02*
G03X176696Y141227I2359J-26D01*
G01X175987Y142939D02*
G03X175840Y143298I-500J6D01*
G01X174930Y144209*
G03X174134Y143622I-354J-354*
G01X173698Y140833D02*
G03X174134Y143622I-1651J1687D01*
G01X173698Y140833D02*
G03X173547Y140475I349J-358D01*
G01Y138857*
G03X173735Y138467I500J0*
G01X174147Y137608D02*
G03X173735Y138467I-1100J0D01*
G01X174147Y137608D02*
Y135108D01*
X173734Y134249D02*
G03X174147Y135108I-687J859D01*
G01X173734Y134249D02*
G03Y133468I312J-391D01*
G01X174147Y132608D02*
G03X173734Y133468I-1100J0D01*
G01X174147Y132608D02*
Y130108D01*
X173047Y129008D02*
G03X174147Y130108I0J1100D01*
G01X173047Y129008D02*
X171047D01*
X170076Y129593D02*
G03X171047Y129008I971J515D01*
G01X170076Y129593D02*
G03X169634Y129858I-442J-235D01*
G01X164977*
G03X164480Y129411I-0J-500*
G01X164452Y129257D02*
G03X164480Y129411I-1066J271D01*
G01X164452Y129257D02*
G03Y129011I485J-123D01*
G01X164486Y128740D02*
G03X164452Y129011I-1100J0D01*
G01X164486Y128740D02*
Y127953D01*
X164481Y127855D02*
G03X164486Y127953I-1095J98D01*
G01X164481Y127855D02*
G03X165183Y127353I498J-45D01*
G01X168467Y124795D02*
G03X165183Y127353I-2325J402D01*
G01X168467Y124795D02*
G03X168960Y124210I493J-85D01*
G01X170004*
X171104Y123110D02*
G03X170004Y124210I-1100J0D01*
G01X171104Y123110D02*
Y120160D01*
G03X171604Y119660I500J-0*
G01X172441*
X172478Y119659D02*
G03X172441Y119660I-37J-1499D01*
G01X172478Y119659D02*
G03X172991Y120159I13J500D01*
G01Y123110*
X174091Y124210D02*
G03X172991Y123110I-0J-1100D01*
G01X174091Y124210D02*
X177091D01*
X177482Y124138D02*
G03X177091Y124210I-391J-1028D01*
G01X177482Y124138D02*
G03X177759Y124115I179J467D01*
X177887Y123869I491J98*
G01X178191Y123110D02*
G03X177887Y123868I-1100J0D01*
G01X178191Y123110D02*
Y119310D01*
X177818Y118485D02*
G03X178191Y119310I-727J825D01*
G01X177818Y118485D02*
G03Y117735I331J-375D01*
G01X178189Y116972D02*
G03X177818Y117735I-1098J-62D01*
G01X178189Y116972D02*
G03X179106Y116727I499J29D01*
G01X194226Y107057D02*
G03X179106Y116727I-7612J4754D01*
G01X194226Y107057D02*
G03X194621Y106293I424J-265D01*
G01X196478Y105205D02*
G03X194621Y106293I-1990J-1268D01*
G01X196478Y105205D02*
G03X197400Y105474I422J269D01*
G01Y122085*
G03X196478Y122354I-500J0*
G01Y124890D02*
G03Y122354I-1990J-1268D01*
G01Y124890D02*
G03X197400Y125159I422J269D01*
G01Y129959*
G03X196478Y130228I-500J0*
G01Y132764D02*
G03Y130228I-1990J-1268D01*
G01Y132764D02*
G03X197400Y133033I422J269D01*
G01Y137833*
G03X196478Y138102I-500J0*
G01Y140638D02*
G03Y138102I-1990J-1268D01*
G01Y140638D02*
G03X197400Y140907I422J269D01*
G01Y145707*
G03X196478Y145976I-500J0*
G01Y148512D02*
G03Y145976I-1990J-1268D01*
G01Y148512D02*
G03X197400Y148781I422J269D01*
G01Y153581*
G03X196478Y153850I-500J0*
G01Y156386D02*
G03Y153850I-1990J-1268D01*
G01Y156386D02*
G03X197400Y156655I422J269D01*
G01Y161455*
G03X196478Y161724I-500J0*
G01Y164260D02*
G03Y161724I-1990J-1268D01*
G01Y164260D02*
G03X197400Y164529I422J269D01*
G01Y169329*
G03X196478Y169598I-500J0*
G01Y172134D02*
G03Y169598I-1990J-1268D01*
G01Y172134D02*
G03X197400Y172403I422J269D01*
G01X156571Y182709D02*
Y183343D01*
G03X155896Y183812I-500J0*
G01X155512Y183742D02*
G03X155896Y183812I-0J1101D01*
G01X155512Y183742D02*
X153150D01*
X152765Y183812D02*
G03X153150Y183742I385J1031D01*
G01X152765Y183812D02*
G03X152091Y183343I-174J-469D01*
G01Y182709*
G03X152591Y182209I500J-0*
G01X156071*
G03X156571Y182709I-0J500*
G01X197400Y180277D02*
Y192951D01*
G03X196478Y193220I-500J0*
G01X194621Y192132D02*
G03X196478Y193220I-133J2356D01*
G01X194621Y192132D02*
G03X194226Y191368I29J-499D01*
G01Y181860D02*
G03Y191368I-7612J4754D01*
G01Y181860D02*
G03X194621Y181096I424J-265D01*
G01X196478Y180008D02*
G03X194621Y181096I-1990J-1268D01*
G01X196478Y180008D02*
G03X197400Y180277I422J269D01*
G01X193220Y196478D02*
G03X192951Y197400I-269J422D01*
G01X180277*
G03X180008Y196478I0J-500*
G01X181096Y194621D02*
G03X180008Y196478I-2356J-133D01*
G01X181096Y194621D02*
G03X181860Y194226I499J29D01*
G01X191368D02*
G03X181860I-4754J-7612D01*
G01X191368D02*
G03X192132Y194621I265J424D01*
G01X193220Y196478D02*
G03X192132Y194621I1268J-1990D01*
G01X104200Y191368D02*
G03X103804Y192132I-425J265D01*
G01X102009Y193128D02*
G03X103804Y192132I1928J1360D01*
G01X102009Y193128D02*
G03X101100Y192840I-409J-288D01*
G01Y180389*
G03X102009Y180100I500J-0*
G01X103804Y181096D02*
G03X102009Y180100I133J-2356D01*
G01X103804Y181096D02*
G03X104200Y181860I-29J499D01*
G01Y191368D02*
G03Y181860I7611J-4754D01*
G01X118262Y151638D02*
G03X118616Y152491I0J500D01*
G01X117443Y153664*
X117004Y154724D02*
G03X117443Y153664I1500J0D01*
G01X117004Y154724D02*
Y155290D01*
G03X116504Y155790I-500J-0*
G01X115059*
X114788Y155824D02*
G03X115059Y155790I271J1066D01*
G01X114788Y155824D02*
G03X114542I-123J-485D01*
G01X114272Y155790D02*
G03X114542Y155824I-0J1100D01*
G01X114272Y155790D02*
X112500D01*
X111621Y156228D02*
G03X112500Y155790I879J662D01*
G01X111621Y156228D02*
G03X110908Y156316I-399J-301D01*
G01X108858Y155593D02*
G03X110908Y156316I0J3265D01*
G01X108858Y155593D02*
X106797D01*
G03X106297Y155097I-0J-500*
G01X102009Y153758D02*
G03X106297Y155097I1928J1360D01*
G01X102009Y153758D02*
G03X101100Y153470I-409J-288D01*
G01Y147390*
G03X102023Y147123I500J-0*
G01X102953Y147635D02*
G03X102023Y147123I-0J-1100D01*
G01X102953Y147635D02*
X105677D01*
G03X106177Y148135I0J500*
G01Y149606*
X106616Y150667D02*
G03X106177Y149606I1061J-1061D01*
G01X106616Y150667D02*
X107148Y151198D01*
X108209Y151638D02*
G03X107148Y151198I-0J-1500D01*
G01X108209Y151638D02*
X118262D01*
X118037Y101100D02*
G03X118325Y102009I-0J500D01*
G01X117329Y103804D02*
G03X118325Y102009I2356J133D01*
G01X117329Y103804D02*
G03X116565Y104200I-499J-29D01*
G01X107057D02*
G03X116565I4754J7611D01*
G01X107057D02*
G03X106293Y103804I-265J-425D01*
G01X105297Y102009D02*
G03X106293Y103804I-1360J1928D01*
G01X105297Y102009D02*
G03X105585Y101100I288J-409D01*
G01X118037*
X125655Y114886D02*
G03X125871Y115837I0J500D01*
G01X125866Y115840D02*
G03X125871Y115837I906J1877D01*
G01X125866Y115840D02*
G03X125608Y115888I-218J-451D01*
X125455Y116101I-469J-175*
G01X124877Y118586D02*
G03X125455Y116101I1895J-869D01*
G01X124877Y118586D02*
G03X124573Y119271I-454J208D01*
G01X123187Y121811D02*
G03X124573Y119271I2010J-551D01*
G01X123187Y121811D02*
G03X122705Y122443I-482J132D01*
G01X118307*
X117207Y123543D02*
G03X118307Y122443I1100J0D01*
G01X117207Y123543D02*
Y126535D01*
X117451Y127226D02*
G03X117207Y126535I856J-691D01*
G01X117451Y127226D02*
G03Y127853I-390J313D01*
G01X117360Y127985D02*
G03X117451Y127853I947J558D01*
G01X117360Y127985D02*
G03X116654Y128148I-431J-254D01*
G01X114055D02*
G03X116654I1299J1970D01*
G01X114055D02*
G03X113349Y127985I-275J-417D01*
G01X113258Y127853D02*
G03X113349Y127985I-856J690D01*
G01X113258Y127853D02*
G03Y127226I389J-314D01*
G01X113502Y126535D02*
G03X113258Y127226I-1100J0D01*
G01X113502Y126535D02*
Y123543D01*
X112402Y122443D02*
G03X113502Y123543I-0J1100D01*
G01X112402Y122443D02*
X106252D01*
G03X105848Y122237I0J-500*
G01X102009Y122262D02*
G03X105848Y122237I1928J1360D01*
G01X102009Y122262D02*
G03X101100Y121974I-409J-288D01*
G01Y105585*
G03X102009Y105297I500J0*
G01X103804Y106293D02*
G03X102009Y105297I133J-2356D01*
G01X103804Y106293D02*
G03X104200Y107057I-29J499D01*
G01X120768Y112367D02*
G03X104200Y107057I-8957J-556D01*
G01X120768Y112367D02*
G03X121342Y111903I499J31D01*
G01X121623Y111927D02*
G03X121342Y111903I31J-2084D01*
G01X121623Y111927D02*
G03X122080Y112612I-7J500D01*
G01X124922Y115263D02*
G03X122080Y112612I-906J-1877D01*
G01X124922Y115263D02*
G03X125180Y115215I217J450D01*
X125332Y115002I468J174*
G01X125336Y114999D02*
G03X125332Y115002I-1320J-1613D01*
G01X125336Y114999D02*
G03X125652Y114886I316J387D01*
G01X125655*
X132758Y107512D02*
Y109024D01*
G03X132258Y109524I-500J-0*
G01X131496*
X131377Y109528D02*
G03X131496Y109524I119J1496D01*
G01X131377Y109528D02*
G03X131337Y109530I-40J-498D01*
G01X130315*
X129256Y110333D02*
G03X130315Y109530I1059J297D01*
G01X129256Y110333D02*
G03X128421Y110551I-482J-135D01*
G01X126651Y108782*
X125591Y108343D02*
G03X126651Y108782I-0J1500D01*
G01X125591Y108342D02*
X123290D01*
X123290D02*
G03X122973Y108229I0J-500D01*
G01X120573Y108060D02*
G03X122973Y108229I1081J1783D01*
G01X120573Y108060D02*
G03X119865Y107853I-259J-427D01*
G01X119422Y107057D02*
G03X119865Y107853I-7611J4754D01*
G01X119422Y107057D02*
G03X119818Y106293I425J-265D01*
G01X121045Y102009D02*
G03X119818Y106293I-1360J1928D01*
G01X121045Y102009D02*
G03X121333Y101100I288J-409D01*
G01X128660*
G03X129156Y101664I0J500*
G01X129211Y102557D02*
G03X129156Y101664I2285J-588D01*
G01X129211Y102557D02*
G03X128798Y103176I-485J124D01*
G01X130821Y107162D02*
G03X128798Y103176I-1687J-1650D01*
G01X130821Y107162D02*
G03X131178Y107012I357J350D01*
G01X132258*
G03X132758Y107512I0J500*
G01X145449Y105339D02*
G03X144972Y105987I-477J148D01*
G01X144882*
X144611Y106020D02*
G03X144882Y105987I271J1067D01*
G01X144611Y106020D02*
G03X144365I-123J-484D01*
G01X144116Y105987D02*
G03X144365Y106020I-22J1100D01*
G01X144116Y105987D02*
G03X143626Y105487I10J-500D01*
G01Y104283*
G03X144348Y103835I500J0*
G01X144944Y104026D02*
G03X144348Y103835I332J-2057D01*
G01X144944Y104026D02*
G03X145363Y104559I-79J494D01*
G01X145449Y105339D02*
G03X145363Y104559I1992J-615D01*
G01X154332Y103469D02*
G03X154824Y104059I0J500D01*
G01X154799Y104331D02*
G03X154824Y104059I1500J-0D01*
G01X154799Y104331D02*
Y105487D01*
G03X154309Y105987I-500J-0*
G01X154060Y106020D02*
G03X154309Y105987I271J1067D01*
G01X154060Y106020D02*
G03X153814I-123J-484D01*
G01X153543Y105987D02*
G03X153814Y106020I0J1100D01*
G01X153543Y105987D02*
X152756D01*
X152485Y106020D02*
G03X152756Y105987I271J1067D01*
G01X152485Y106020D02*
G03X152239I-123J-484D01*
G01X151969Y105987D02*
G03X152239Y106020I-0J1100D01*
G01X151969Y105987D02*
X151181D01*
X150910Y106020D02*
G03X151181Y105987I271J1067D01*
G01X150910Y106020D02*
G03X150664I-123J-484D01*
G01X150394Y105987D02*
G03X150664Y106020I-0J1100D01*
G01X150394Y105987D02*
X149910D01*
G03X149433Y105339I0J-500*
G01X149434Y104115D02*
G03X149433Y105339I-1993J609D01*
G01X149434Y104115D02*
G03X149912Y103469I478J-146D01*
G01X154332*
X163355Y141001D02*
G03X163580Y141561I-257J429D01*
G01X163542Y141850D02*
G03X163580Y141561I1100J0D01*
G01X163542Y141850D02*
Y144850D01*
G03X163042Y145350I-500J0*
G01X161099*
G03X160742Y145200I0J-500*
G01X158423Y144577D02*
G03X160742Y145200I632J2273D01*
G01X158423Y144577D02*
G03X157789Y144095I-134J-482D01*
G01Y143702*
X156689Y142602D02*
G03X157789Y143702I-0J1100D01*
G01X156689Y142602D02*
X154133D01*
G03X153638Y142030I-0J-500*
G01X153659Y141745D02*
G03X153638Y142030I-2084J-13D01*
G01X153659Y141745D02*
G03X154213Y141251I500J3D01*
G01X154331Y141258D02*
G03X154213Y141251I-0J-1101D01*
G01X154331Y141258D02*
X155118D01*
X155389Y141224D02*
G03X155118Y141258I-271J-1067D01*
G01X155389Y141224D02*
G03X155635I123J484D01*
G01X155906Y141257D02*
G03X155635Y141224I-0J-1100D01*
G01X155906Y141258D02*
X156693D01*
X156964Y141224D02*
G03X156693Y141258I-271J-1067D01*
G01X156964Y141224D02*
G03X157210I123J484D01*
G01X157480Y141257D02*
G03X157210Y141224I0J-1100D01*
G01X157480Y141258D02*
X158268D01*
X158538Y141224D02*
G03X158268Y141258I-270J-1067D01*
G01X158538Y141224D02*
G03X158784I123J484D01*
G01X159055Y141257D02*
G03X158784Y141224I0J-1100D01*
G01X159055Y141258D02*
X159843D01*
X160788Y140720D02*
G03X159843Y141258I-945J-563D01*
G01X160788Y140720D02*
G03X161217Y140476I429J256D01*
G01X162523*
G03X162880Y140627I-0J500*
G01X163355Y141001D02*
G03X162880Y140627I1212J-2025D01*
G01X170361Y133468D02*
G03Y134249I-313J390D01*
G01X169947Y135108D02*
G03X170361Y134249I1100J0D01*
G01X169947Y135108D02*
Y137608D01*
X170360Y138467D02*
G03X169947Y137608I687J-859D01*
G01X170360Y138467D02*
G03X170547Y138857I-313J390D01*
G01Y140475*
G03X170397Y140833I-500J0*
G01X169732Y142062D02*
G03X170397Y140833I2315J458D01*
G01X169732Y142062D02*
G03X168742Y141965I-490J-97D01*
G01Y141850*
X167642Y140750D02*
G03X168742Y141850I-0J1100D01*
G01X167642Y140750D02*
X167127D01*
G03X166680Y140028I0J-500*
G01X164913Y136642D02*
G03X166680Y140028I-346J2334D01*
G01X164913Y136642D02*
G03X164486Y136147I73J-495D01*
G01Y135827*
X164452Y135556D02*
G03X164486Y135827I-1066J271D01*
G01X164452Y135556D02*
G03Y135310I485J-123D01*
G01X164486Y135039D02*
G03X164452Y135310I-1100J0D01*
G01X164486Y135039D02*
Y134252D01*
X164452Y133981D02*
G03X164486Y134252I-1066J271D01*
G01X164452Y133981D02*
G03Y133735I485J-123D01*
G01X164486Y133465D02*
G03X164452Y133735I-1100J-0D01*
G01X164486Y133465D02*
Y133358D01*
G03X164986Y132858I500J0*
G01X169634*
G03X170076Y133124I-0J500*
G01X170361Y133468D02*
G03X170076Y133124I686J-860D01*
G01X170680Y144443D02*
G03X170390Y145350I-290J407D01*
G01X169242*
G03X168742Y144850I-0J-500*
G01Y143075*
G03X169732Y142978I500J-0*
G01X170680Y144443D02*
G03X169732Y142978I1367J-1923D01*
G01X183353Y165357D02*
G03Y166139I-312J391D01*
G01X183068Y166482D02*
G03X183353Y166139I971J516D01*
G01X183068Y166482D02*
G03X182626Y166748I-442J-234D01*
G01X179921*
X178861Y167187D02*
G03X179921Y166748I1060J1061D01*
G01X178861Y167187D02*
X178230Y167818D01*
G03X177754Y167949I-354J-353*
G01X177484Y167916D02*
G03X177754Y167949I0J1100D01*
G01X177484Y167916D02*
X174484D01*
X173384Y169016D02*
G03X174484Y167916I1100J-0D01*
G01X173384Y169016D02*
Y169990D01*
G03X172884Y170490I-500J0*
G01X171923*
G03X171423Y169990I-0J-500*
G01Y168990*
X170323Y167890D02*
G03X171423Y168990I-0J1100D01*
G01X170323Y167890D02*
X168191D01*
G03X167691Y167390I0J-500*
G01Y162939*
G03X168160Y162440I500J0*
G01X168916Y162070D02*
G03X168160Y162440I-825J-727D01*
G01X168916Y162070D02*
G03X169666I375J331D01*
G01X170491Y162443D02*
G03X169666Y162070I0J-1100D01*
G01X170491Y162443D02*
X174291D01*
X175391Y161343D02*
G03X174291Y162443I-1100J-0D01*
G01X175391Y161343D02*
Y158343D01*
X175382Y158201D02*
G03X175391Y158343I-1091J142D01*
G01X175382Y158201D02*
G03X175457Y157869I496J-64D01*
X175171Y157682I114J-487*
G01X174291Y157242D02*
G03X175171Y157682I0J1101D01*
G01X174291Y157242D02*
X174074D01*
X174074D02*
G03X173719Y156390I-0J-500D01*
G01X172765Y152476D02*
G03X173719Y156390I-718J2248D01*
G01X172765Y152476D02*
G03X172917Y151500I152J-476D01*
G01X175984*
X177045Y151061D02*
G03X175984Y151500I-1061J-1061D01*
G01X177045Y151061D02*
X178428Y149678D01*
G03X178781Y149532I353J354*
G01X182208*
G03X182565Y149682I-0J500*
G01X182756Y149857D02*
G03X182565Y149682I1496J-1826D01*
G01X182756Y149857D02*
G03X182939Y150244I-317J387D01*
G01Y152687*
X183353Y153546D02*
G03X182939Y152687I686J-859D01*
G01X183353Y153546D02*
G03Y154328I-312J391D01*
G01X182993Y154847D02*
G03X183353Y154328I1046J340D01*
G01X182993Y154847D02*
G03X182518Y155193I-475J-154D01*
G01X180391*
G03X180033Y155043I-0J-500*
G01X176056Y157261D02*
G03X180033Y155043I2290J-568D01*
G01X176056Y157261D02*
G03X175992Y157651I-485J121D01*
X176310Y157885I-114J486*
G01X180033Y158343D02*
G03X176310Y157885I-1687J-1650D01*
G01X180033Y158343D02*
G03X180391Y158193I358J350D01*
G01X182795*
G03X183184Y158379I0J500*
G01X183352Y158546D02*
G03X183184Y158379I687J-859D01*
G01X183352Y158546D02*
G03X183539Y158936I-313J390D01*
G01Y160749*
G03X183352Y161139I-500J0*
G01X182939Y161998D02*
G03X183352Y161139I1100J0D01*
G01X182939Y161998D02*
Y164498D01*
X183353Y165357D02*
G03X182939Y164498I686J-859D01*
G01X192840Y101100D02*
G03X193128Y102009I-0J500D01*
G01X192132Y103804D02*
G03X193128Y102009I2356J133D01*
G01X192132Y103804D02*
G03X191368Y104200I-499J-29D01*
G01X182603Y103783D02*
G03X191368Y104200I4011J8028D01*
G01X182603Y103783D02*
G03X181881Y103372I-223J-447D01*
G01X181259Y101940D02*
G03X181881Y103372I-1731J1603D01*
G01X181259Y101940D02*
G03X181626Y101100I367J-340D01*
G01X192840*
X178998Y105843D02*
G03X179294Y106620I-112J487D01*
G01X177645Y111527D02*
G03X179294Y106620I8969J284D01*
G01X177645Y111527D02*
G03X177128Y112011I-500J-16D01*
G01X177091Y112010D02*
G03X177128Y112011I-0J1100D01*
G01X177091Y112010D02*
X174091D01*
X172991Y113110D02*
G03X174091Y112010I1100J0D01*
G01X172991Y113110D02*
Y115282D01*
G03X172844Y115635I-500J-0*
G01X171966Y116513*
G03X171613Y116660I-353J-353*
G01X171604*
G03X171104Y116160I-0J-500*
G01Y113110*
X170348Y112065D02*
G03X171104Y113110I-344J1045D01*
G01X170348Y112065D02*
G03X170004Y111590I156J-475D01*
G01Y110312*
G03X170154Y109955I500J-0*
G01X170240Y106669D02*
G03X170154Y109955I-1736J1599D01*
G01X170240Y106669D02*
G03X170608Y105831I368J-338D01*
G01X172365*
G03X172723Y105981I0J500*
G01X176673Y104996D02*
G03X172723Y105981I-2264J-665D01*
G01X176673Y104996D02*
G03X177568Y104859I480J141D01*
G01X178998Y105843D02*
G03X177568Y104859I530J-2300D01*
G01X171423Y188490D02*
Y182490D01*
X170323Y181390D02*
G03X171423Y182490I-0J1100D01*
G01X170323Y181390D02*
X164323D01*
X163223Y182490D02*
G03X164323Y181390I1100J0D01*
G01X163223Y182490D02*
Y188490D01*
X164323Y189590D02*
G03X163223Y188490I-0J-1100D01*
G01X164323Y189590D02*
X170323D01*
X171423Y188490D02*
G03X170323Y189590I-1100J0D01*
G01X152872Y174213D02*
Y170079D01*
X151772Y168979D02*
G03X152872Y170079I-0J1100D01*
G01X151772Y168979D02*
X149409D01*
X148309Y170079D02*
G03X149409Y168979I1100J-0D01*
G01X148309Y170079D02*
Y174213D01*
X149409Y175313D02*
G03X148309Y174213I0J-1100D01*
G01X149409Y175313D02*
X151772D01*
X152872Y174213D02*
G03X151772Y175313I-1100J-0D01*
G01X160352Y188976D02*
Y184843D01*
X159815Y183897D02*
G03X160352Y184843I-563J946D01*
G01X159815Y183897D02*
G03X159571Y183468I256J-429D01*
G01Y180709*
X158071Y179209D02*
G03X159571Y180709I-0J1500D01*
G01X158071Y179209D02*
X150591D01*
X149091Y180709D02*
G03X150591Y179209I1500J-0D01*
G01X149091Y180709D02*
Y182081D01*
G03X148237Y182435I-500J-0*
G01X147025Y181223*
X146887Y181101D02*
G03X147025Y181223I-922J1182D01*
G01X146887Y181101D02*
G03X146695Y180706I308J-395D01*
G01Y180334*
X146322Y179509D02*
G03X146695Y180334I-728J825D01*
G01X146322Y179509D02*
G03Y178759I331J-375D01*
G01X146695Y177934D02*
G03X146322Y178759I-1101J-0D01*
G01X146695Y177934D02*
Y174134D01*
X145594Y173034D02*
G03X146695Y174134I0J1100D01*
G01X145594Y173034D02*
X142594D01*
X141494Y174134D02*
G03X142594Y173034I1100J-0D01*
G01X141494Y174134D02*
Y177934D01*
X141867Y178759D02*
G03X141494Y177934I727J-825D01*
G01X141867Y178759D02*
G03Y179509I-331J375D01*
G01X141494Y180334D02*
G03X141867Y179509I1100J-0D01*
G01X141494Y180334D02*
Y182505D01*
G03X141348Y182859I-500J0*
G01X141151Y183056*
G03X140797Y183203I-354J-353*
G01X140427*
G03X139927Y182703I-0J-500*
G01Y181703*
X138827Y180603D02*
G03X139927Y181703I-0J1100D01*
G01X138827Y180603D02*
X137891D01*
G03X137393Y180140I0J-500*
G01X132680Y180252D02*
G03X137393Y180140I2359J63D01*
G01X132680Y180252D02*
G03X132382Y180696I-499J-13D01*
G01X131727Y181703D02*
G03X132382Y180696I1100J-0D01*
G01X131727Y181703D02*
Y187703D01*
X132827Y188803D02*
G03X131727Y187703I-0J-1100D01*
G01X132827Y188803D02*
X138827D01*
X139927Y187703D02*
G03X138827Y188803I-1100J-0D01*
G01X139927Y187703D02*
Y186703D01*
G03X140427Y186203I500J-0*
G01X141626*
X142686Y185763D02*
G03X141626Y186203I-1060J-1060D01*
G01X142686Y185763D02*
X143069Y185380D01*
G03X143423Y185234I354J354*
G01X145594*
X146135Y185092D02*
G03X145594Y185234I-541J-958D01*
G01X146135Y185092D02*
G03X146734Y185174I245J436D01*
G01X148163Y186603*
G03X148309Y186957I-354J354*
G01Y188976*
X149409Y190076D02*
G03X148309Y188976I0J-1100D01*
G01X149409Y190076D02*
X151772D01*
X152245Y189969D02*
G03X151772Y190076I-473J-993D01*
G01X152245Y189969D02*
G03X152676I216J451D01*
G01X153150Y190076D02*
G03X152676Y189969I-0J-1100D01*
G01X153150Y190076D02*
X155512D01*
X155985Y189969D02*
G03X155512Y190076I-473J-993D01*
G01X155985Y189969D02*
G03X156416I216J451D01*
G01X156890Y190076D02*
G03X156416Y189969I-0J-1100D01*
G01X156890Y190076D02*
X159252D01*
X160352Y188976D02*
G03X159252Y190076I-1100J0D01*
G01X128478Y186033D02*
Y183533D01*
X128065Y182674D02*
G03X128478Y183533I-687J859D01*
G01X128065Y182674D02*
G03Y181893I312J-391D01*
G01X128478Y181033D02*
G03X128065Y181893I-1100J0D01*
G01X128478Y181033D02*
Y178533D01*
X127678Y177475D02*
G03X128478Y178533I-300J1058D01*
G01X127678Y177475D02*
G03X127426Y176680I137J-481D01*
G01X123940Y176884D02*
G03X127426Y176680I1651J-1687D01*
G01X123940Y176884D02*
G03X124091Y177241I-349J357D01*
G01Y178996*
X124231Y179630D02*
G03X124091Y178996I1360J-634D01*
G01X124231Y179630D02*
G03X124278Y179841I-453J211D01*
G01Y181033*
X124691Y181893D02*
G03X124278Y181033I687J-860D01*
G01X124691Y181893D02*
G03Y182674I-312J390D01*
G01X124278Y183533D02*
G03X124691Y182674I1100J0D01*
G01X124278Y183533D02*
Y186033D01*
X125378Y187133D02*
G03X124278Y186033I-0J-1100D01*
G01X125378Y187133D02*
X127378D01*
X128478Y186033D02*
G03X127378Y187133I-1100J0D01*
G01X176815Y104769D02*
X179042Y106995D01*
X176389Y105615D02*
X178582Y107808D01*
X175764Y106263D02*
X178198Y108697D01*
X174873Y106645D02*
X177899Y109671D01*
X173436Y106481D02*
X177703Y110748D01*
X171514Y105831D02*
X177522Y111839D01*
X170327Y105917D02*
X176420Y112010D01*
X170779Y107642D02*
X175148Y112010D01*
X170775Y108910D02*
X173893Y112028D01*
X170341Y109749D02*
X173143Y112551D01*
X171103Y113057D02*
X172991Y114944D01*
X170004Y110685D02*
X172991Y113672D01*
X171104Y114331D02*
X172626Y115853D01*
X171104Y115603D02*
X171990Y116489D01*
X192239Y101100D02*
X193139Y102000D01*
X190966Y101100D02*
X192512Y102647D01*
X189693Y101100D02*
X192158Y103565D01*
X188420Y101100D02*
X191594Y104274D01*
X187148Y101100D02*
X189294Y103246D01*
X185875Y101100D02*
X187675Y102900D01*
X184602Y101100D02*
X186343Y102841D01*
X183329Y101100D02*
X185181Y102952D01*
X182056Y101100D02*
X184141Y103185D01*
X181145Y101462D02*
X183197Y103513D01*
X181906Y103495D02*
X182221Y103810D01*
X181874Y158193D02*
X183539Y159859D01*
X180601Y158193D02*
X183447Y161039D01*
X175383Y158066D02*
X183406Y166089D01*
X178439Y149667D02*
X183222Y154450D01*
X179576Y149532D02*
X182964Y152919D01*
X179736Y158600D02*
X182954Y161819D01*
X177476Y158886D02*
X182939Y164350D01*
X178859Y158996D02*
X182939Y163077D01*
X180849Y149532D02*
X182939Y151622D01*
X182122Y149532D02*
X182939Y150349D01*
X175391Y159347D02*
X182771Y166727D01*
X177802Y150303D02*
X182669Y155170D01*
X175391Y160620D02*
X181519Y166748D01*
X177166Y150940D02*
X181419Y155193D01*
X175294Y161795D02*
X180247Y166748D01*
X176396Y151442D02*
X179748Y154794D01*
X174618Y162393D02*
X179173Y166948D01*
X173395Y162443D02*
X178500Y167548D01*
X175181Y151500D02*
X178035Y154354D01*
X172123Y162443D02*
X177602Y167922D01*
X173908Y151500D02*
X177098Y154690D01*
X172690Y151555D02*
X176439Y155304D01*
X170850Y162443D02*
X176323Y167916D01*
X174224Y155635D02*
X176062Y157473D01*
X174400Y154537D02*
X176043Y156180D01*
X169082Y161947D02*
X175050Y167916D01*
X173713Y156396D02*
X174605Y157288D01*
X168287Y162425D02*
X173928Y168067D01*
X167691Y163102D02*
X173403Y168814D01*
X167691Y164375D02*
X173379Y170063D01*
X171423Y169379D02*
X172534Y170490D01*
X167691Y165648D02*
X169934Y167890D01*
X167691Y166921D02*
X168661Y167890D01*
X170642Y144415D02*
X170817Y144591D01*
X168742Y143788D02*
X170304Y145350D01*
X168919Y142693D02*
X170152Y143925D01*
X164513Y133196D02*
X170547Y139230D01*
X164486Y134441D02*
X170547Y140502D01*
X169267Y132858D02*
X170494Y134085D01*
X166662Y137890D02*
X170044Y141272D01*
X167994Y132858D02*
X169980Y134844D01*
X165449Y132858D02*
X169947Y137357D01*
X166721Y132858D02*
X169947Y136084D01*
X166890Y139391D02*
X169688Y142189D01*
X166664Y140437D02*
X166941Y140714D01*
X164479Y135707D02*
X165654Y136882D01*
X160704Y140842D02*
X163542Y143679D01*
X161612Y140476D02*
X163542Y142406D01*
X159847Y141257D02*
X163533Y144943D01*
X158540Y141223D02*
X162667Y145350D01*
X157284Y141240D02*
X161394Y145350D01*
X156029Y141258D02*
X159272Y144500D01*
X157877Y144379D02*
X158005Y144507D01*
X154756Y141258D02*
X156100Y142602D01*
X153725Y141500D02*
X154827Y142602D01*
X153878Y103469D02*
X154799Y104390D01*
X152605Y103469D02*
X154776Y105639D01*
X151332Y103469D02*
X153898Y106034D01*
X150060Y103469D02*
X152590Y105999D01*
X149435Y104116D02*
X151305Y105987D01*
X149422Y105377D02*
X150032Y105987D01*
X144021Y103794D02*
X145407Y105180D01*
X143626Y104672D02*
X144941Y105987D01*
X131965Y107012D02*
X132758Y107805D01*
X130832Y107151D02*
X132756Y109075D01*
X130081Y107673D02*
X131932Y109524D01*
X129003Y107868D02*
X130665Y109530D01*
X121050Y101188D02*
X129631Y109768D01*
X127326Y101100D02*
X129159Y102932D01*
X128599Y101100D02*
X129157Y101658D01*
X121981Y103391D02*
X129134Y110545D01*
X126054Y101100D02*
X128270Y103316D01*
X124781Y101100D02*
X127495Y103814D01*
X123508Y101100D02*
X126972Y104564D01*
X122235Y101100D02*
X126778Y105642D01*
X121942Y104625D02*
X125661Y108344D01*
X121495Y105451D02*
X124387Y108342D01*
X120792Y106021D02*
X123055Y108284D01*
X119794Y106295D02*
X121289Y107790D01*
X119627Y107401D02*
X120356Y108131D01*
X125906Y114953D02*
X126088Y115135D01*
X124936Y115256D02*
X125596Y115916D01*
X123872Y115465D02*
X125010Y116603D01*
X120370Y114508D02*
X124873Y119011D01*
X120626Y113492D02*
X124693Y117559D01*
X120022Y115433D02*
X124086Y119497D01*
X119594Y116278D02*
X123446Y120130D01*
X119096Y117052D02*
X123121Y121077D01*
X118530Y117760D02*
X123063Y122292D01*
X121606Y111926D02*
X122116Y112436D01*
X117901Y118403D02*
X121941Y122443D01*
X120768Y112361D02*
X121936Y113529D01*
X117207Y118982D02*
X120668Y122443D01*
X116447Y119495D02*
X119395Y122443D01*
X115617Y119938D02*
X118136Y122457D01*
X114710Y120304D02*
X117371Y122965D01*
X113502Y124186D02*
X117336Y128021D01*
X111362Y120774D02*
X117210Y126622D01*
X112610Y120749D02*
X117207Y125346D01*
X113715Y120581D02*
X117207Y124073D01*
X113502Y125459D02*
X115855Y127812D01*
X113487Y126717D02*
X114639Y127869D01*
X113164Y127667D02*
X113725Y128228D01*
X109893Y120578D02*
X111759Y122443D01*
X107959Y119916D02*
X110486Y122443D01*
X101100Y114330D02*
X109213Y122443D01*
X101100Y115603D02*
X107940Y122443D01*
X101100Y116876D02*
X106668Y122443D01*
X101100Y118149D02*
X104232Y121281D01*
X103093Y106141D02*
X104127Y107175D01*
X101100Y113057D02*
X103706Y115663D01*
X101121Y105442D02*
X103684Y108005D01*
X101100Y106693D02*
X103318Y108912D01*
X101100Y119421D02*
X103096Y121417D01*
X101100Y111785D02*
X103044Y113729D01*
X101100Y107966D02*
X103041Y109907D01*
X101100Y109239D02*
X102873Y111012D01*
X101100Y110512D02*
X102848Y112260D01*
X101100Y120694D02*
X102314Y121909D01*
X101100Y121967D02*
X101607Y122474D01*
X117144Y101100D02*
X118171Y102127D01*
X115871Y101100D02*
X117601Y102830D01*
X114598Y101100D02*
X117327Y103828D01*
X113326Y101100D02*
X116221Y103995D01*
X112053Y101100D02*
X114082Y103129D01*
X110780Y101100D02*
X112547Y102867D01*
X109507Y101100D02*
X111261Y102854D01*
X108235Y101100D02*
X110130Y102996D01*
X106962Y101100D02*
X109114Y103252D01*
X105689Y101100D02*
X108189Y103600D01*
X105783Y102467D02*
X107344Y104028D01*
X105137Y101821D02*
X105407Y102091D01*
X118043Y151638D02*
X118727Y152322D01*
X116770Y151638D02*
X118120Y152987D01*
X115497Y151638D02*
X117483Y153624D01*
X114225Y151638D02*
X117030Y154444D01*
X112952Y151638D02*
X116904Y155590D01*
X111679Y151638D02*
X115831Y155790D01*
X110406Y151638D02*
X114604Y155835D01*
X109134Y151638D02*
X113285Y155790D01*
X107806Y151583D02*
X112091Y155868D01*
X102478Y147528D02*
X111358Y156408D01*
X101100Y147423D02*
X109300Y155623D01*
X101100Y148695D02*
X107997Y155593D01*
X106303Y155171D02*
X106718Y155587D01*
X103858Y147635D02*
X106232Y150009D01*
X105131Y147635D02*
X106177Y148681D01*
X101100Y149968D02*
X103890Y152759D01*
X101100Y151241D02*
X102871Y153013D01*
X101100Y152514D02*
X102156Y153570D01*
X101100Y188152D02*
X104026Y191078D01*
X101779Y179922D02*
X104019Y182162D01*
X101100Y189425D02*
X103807Y192132D01*
X101100Y180515D02*
X103593Y183008D01*
X101100Y181788D02*
X103246Y183934D01*
X101100Y186879D02*
X103137Y188917D01*
X101100Y183061D02*
X102992Y184953D01*
X101100Y185606D02*
X102869Y187376D01*
X101100Y184334D02*
X102853Y186086D01*
X101100Y190698D02*
X102815Y192412D01*
X101100Y191970D02*
X102116Y192987D01*
X190420Y194741D02*
X193066Y197387D01*
X191250Y194298D02*
X192284Y195332D01*
X189514Y195107D02*
X191807Y197400D01*
X188518Y195384D02*
X190534Y197400D01*
X187414Y195553D02*
X189261Y197400D01*
X186165Y195577D02*
X187988Y197400D01*
X184696Y195381D02*
X186715Y197400D01*
X182762Y194719D02*
X185443Y197400D01*
X181165Y194395D02*
X184170Y197400D01*
X180911Y195414D02*
X182897Y197400D01*
X180395Y196171D02*
X181624Y197400D01*
X179782Y196830D02*
X180352Y197400D01*
X194825Y190236D02*
X197400Y192811D01*
X195173Y189311D02*
X197400Y191538D01*
X195429Y188295D02*
X197400Y190265D01*
X195571Y187164D02*
X197400Y188993D01*
X195558Y185878D02*
X197400Y187720D01*
X195296Y184343D02*
X197400Y186447D01*
X194430Y182204D02*
X197400Y185174D01*
X194597Y181098D02*
X197400Y183901D01*
X195595Y180824D02*
X197400Y182629D01*
X196298Y180254D02*
X197400Y181356D01*
X197179Y179862D02*
X197315Y179998D01*
X196334Y193018D02*
X196742Y193426D01*
X194397Y191081D02*
X195959Y192642D01*
X156314Y182272D02*
X156508Y182466D01*
X154978Y182209D02*
X156445Y183675D01*
X153705Y182209D02*
X155239Y183742D01*
X152452Y182228D02*
X153966Y183742D01*
X152091Y183140D02*
X152763Y183813D01*
X194358Y173222D02*
X197400Y176265D01*
X195436Y173028D02*
X197400Y174992D01*
X196186Y172505D02*
X197400Y173719D01*
X196858Y171905D02*
X197400Y172446D01*
X194090Y165318D02*
X197400Y168628D01*
X195265Y165220D02*
X197400Y167355D01*
X196065Y164748D02*
X197400Y166082D01*
X196674Y164083D02*
X197400Y164810D01*
X193777Y157368D02*
X197400Y160991D01*
X195083Y157402D02*
X197400Y159718D01*
X195936Y156982D02*
X197400Y158446D01*
X196538Y156311D02*
X197400Y157173D01*
X193365Y149319D02*
X197400Y153355D01*
X194888Y149570D02*
X197400Y152082D01*
X195798Y149207D02*
X197400Y150809D01*
X196438Y148574D02*
X197400Y149536D01*
X194677Y141722D02*
X197400Y144445D01*
X195651Y141423D02*
X197400Y143172D01*
X196337Y140837D02*
X197400Y141899D01*
X194447Y133856D02*
X197400Y136808D01*
X195495Y133630D02*
X197400Y135535D01*
X196228Y133091D02*
X197400Y134263D01*
X194192Y125963D02*
X197400Y129172D01*
X195328Y125827D02*
X197400Y127899D01*
X196110Y125336D02*
X197400Y126626D01*
X196734Y124687D02*
X197400Y125353D01*
X193469Y117603D02*
X197400Y121535D01*
X194019Y116881D02*
X197400Y120262D01*
X194502Y116091D02*
X197400Y118989D01*
X194912Y115228D02*
X197400Y117716D01*
X195241Y114284D02*
X197400Y116444D01*
X195473Y113244D02*
X197400Y115171D01*
X195584Y112082D02*
X197400Y113898D01*
X195525Y110751D02*
X197400Y112625D01*
X195179Y109131D02*
X197400Y111352D01*
X194151Y106831D02*
X197400Y110080D01*
X194860Y106267D02*
X197400Y108807D01*
X195779Y105913D02*
X197400Y107534D01*
X196425Y105286D02*
X197400Y106261D01*
X186136Y134454D02*
X197400Y145718D01*
X196945Y132535D02*
X197398Y132988D01*
X186217Y126898D02*
X197356Y138037D01*
X187139Y167277D02*
X197327Y177464D01*
X187678Y120722D02*
X197261Y130305D01*
X186539Y159040D02*
X197216Y169717D01*
X192854Y118261D02*
X197124Y122532D01*
X187139Y152003D02*
X197064Y161928D01*
X184491Y141718D02*
X196852Y154079D01*
X186352Y135943D02*
X195542Y145133D01*
X185752Y127706D02*
X195152Y137105D01*
X187139Y168550D02*
X195034Y176444D01*
X186467Y120784D02*
X194846Y129164D01*
X186539Y160313D02*
X194747Y168521D01*
X192175Y118855D02*
X194584Y121264D01*
X187029Y153166D02*
X194495Y160632D01*
X179998Y138498D02*
X194268Y152769D01*
X186352Y137215D02*
X194060Y144923D01*
X185772Y128998D02*
X193867Y137093D01*
X187101Y169785D02*
X193800Y176483D01*
X185059Y120649D02*
X193687Y129277D01*
X187139Y162186D02*
X193624Y168670D01*
X191430Y119383D02*
X193518Y121471D01*
X186538Y153948D02*
X193459Y160869D01*
X179846Y139619D02*
X193304Y153077D01*
X186492Y138628D02*
X193158Y145295D01*
X186352Y130851D02*
X193022Y137521D01*
X186528Y170484D02*
X192974Y176930D01*
X183280Y120143D02*
X192894Y129756D01*
X187139Y163459D02*
X192849Y169168D01*
X190617Y119843D02*
X192774Y122000D01*
X187139Y155822D02*
X192733Y161415D01*
X186576Y147622D02*
X192625Y153670D01*
X186540Y139949D02*
X192525Y145934D01*
X186352Y132124D02*
X192435Y138207D01*
X185449Y141404D02*
X192413Y148367D01*
X185369Y170598D02*
X192404Y177633D01*
X186322Y124458D02*
X192354Y130489D01*
X187119Y164711D02*
X192327Y169919D01*
X189729Y120227D02*
X192283Y122782D01*
X187139Y157095D02*
X192260Y162215D01*
X187139Y150731D02*
X192238Y155829D01*
X186487Y148805D02*
X192205Y154523D01*
X186124Y140806D02*
X192162Y146844D01*
X186998Y158226D02*
X192162Y163390D01*
X188755Y120526D02*
X192147Y123919D01*
X186170Y133215D02*
X192136Y139181D01*
X186616Y165481D02*
X192132Y170997D01*
X184097Y170598D02*
X192130Y178632D01*
X186578Y125987D02*
X192129Y131537D01*
X181974Y169748D02*
X191024Y178798D01*
X180703Y169750D02*
X188885Y177932D01*
X179985Y170305D02*
X187351Y177670D01*
X179349Y170942D02*
X186064Y177657D01*
X178434Y116570D02*
X185385Y123520D01*
X178713Y171579D02*
X184933Y177799D01*
X179847Y140893D02*
X184662Y145707D01*
X178584Y172723D02*
X183917Y178055D01*
X178046Y117455D02*
X183856Y123264D01*
X180704Y143022D02*
X183482Y145801D01*
X178221Y173632D02*
X182992Y178403D01*
X177975Y118656D02*
X182945Y123626D01*
X181761Y127533D02*
X182752Y128524D01*
X180430Y144021D02*
X182680Y146271D01*
X181293Y128338D02*
X182386Y129431D01*
X180446Y132583D02*
X182347Y134483D01*
X180446Y131310D02*
X182306Y133169D01*
X178191Y120144D02*
X182304Y124258D01*
X180446Y136401D02*
X182203Y138158D01*
X180446Y135128D02*
X182152Y136834D01*
X180047Y133456D02*
X182152Y135561D01*
X180444Y130035D02*
X182152Y131743D01*
X180571Y128888D02*
X182152Y130470D01*
X178584Y175268D02*
X182147Y178831D01*
X180445Y137672D02*
X181904Y139132D01*
X178191Y121417D02*
X181866Y125093D01*
X179860Y144724D02*
X181667Y146531D01*
X178584Y176541D02*
X181373Y179330D01*
X178584Y177814D02*
X180666Y179895D01*
X179034Y145171D02*
X180395Y146531D01*
X178582Y179084D02*
X180022Y180525D01*
X178191Y122690D02*
X179951Y124450D01*
X178131Y179906D02*
X179443Y181218D01*
X177987Y145396D02*
X179122Y146531D01*
X177068Y180116D02*
X178930Y181978D01*
X171423Y184653D02*
X178833Y192063D01*
X177982Y123754D02*
X178766Y124538D01*
X171423Y183380D02*
X178509Y190466D01*
X175795Y180116D02*
X178487Y182808D01*
X174522Y180116D02*
X178121Y183715D01*
X177163Y124208D02*
X177961Y125006D01*
X171299Y181984D02*
X177847Y188532D01*
X169224Y176090D02*
X177844Y184711D01*
X171423Y185926D02*
X177815Y192317D01*
X167951Y176090D02*
X177676Y185815D01*
X166678Y176090D02*
X177651Y187063D01*
X169996Y189590D02*
X177604Y197198D01*
X175892Y124210D02*
X177411Y125729D01*
X174620Y124210D02*
X177168Y126758D01*
X171423Y187199D02*
X177058Y192833D01*
X171104Y121967D02*
X176864Y127727D01*
X174140Y137732D02*
X176846Y140438D01*
X174147Y136466D02*
X176846Y139165D01*
X171097Y123233D02*
X176834Y128970D01*
X174147Y131375D02*
X176813Y134041D01*
X171423Y188471D02*
X176553Y193602D01*
X173668Y138532D02*
X176536Y141400D01*
X173185Y194052D02*
X176533Y197400D01*
X171020Y189341D02*
X176391Y194712D01*
X170616Y124025D02*
X176316Y129725D01*
X174147Y132647D02*
X176293Y134793D01*
X174147Y135193D02*
X176246Y137292D01*
X173713Y133486D02*
X176246Y136019D01*
X174147Y130102D02*
X176246Y132201D01*
X169528Y124210D02*
X176246Y130928D01*
X173547Y139684D02*
X176089Y142226D01*
X174241Y141651D02*
X175864Y143273D01*
X173102Y195242D02*
X175260Y197400D01*
X174351Y143033D02*
X175228Y143910D01*
X174134Y144090D02*
X174342Y144297D01*
X172636Y196049D02*
X173988Y197400D01*
X172988Y173490D02*
X173821Y174323D01*
X171747Y173522D02*
X173386Y175161D01*
X170485Y176078D02*
X173384Y178978D01*
X171254Y175575D02*
X173384Y177705D01*
X171423Y174471D02*
X173384Y176432D01*
X168519Y124474D02*
X173054Y129008D01*
X171104Y120695D02*
X172991Y122581D01*
X171390Y119708D02*
X172991Y121308D01*
X172636Y119681D02*
X172969Y120014D01*
X171968Y196653D02*
X172715Y197400D01*
X168452Y125679D02*
X171781Y129008D01*
X168723Y189590D02*
X171302Y192169D01*
X165406Y176090D02*
X170829Y181513D01*
X168065Y126565D02*
X170602Y129102D01*
X167451Y189590D02*
X170112Y192252D01*
X167412Y127185D02*
X169962Y129735D01*
X160352Y187583D02*
X169809Y197040D01*
X164113Y176070D02*
X169433Y181390D01*
X166178Y189590D02*
X169306Y192718D01*
X165227Y193731D02*
X168896Y197400D01*
X166486Y127531D02*
X168813Y129858D01*
X164905Y189590D02*
X168753Y193438D01*
X160352Y186310D02*
X168506Y194464D01*
X160455Y173686D02*
X168160Y181390D01*
X165282Y195058D02*
X167624Y197400D01*
X164992Y127310D02*
X167540Y129858D01*
X160224Y174727D02*
X166887Y181390D01*
X164869Y195918D02*
X166351Y197400D01*
X164486Y128077D02*
X166267Y129858D01*
X159507Y175283D02*
X165614Y181390D01*
X164201Y196523D02*
X165078Y197400D01*
X164468Y129332D02*
X164994Y129858D01*
X160024Y161799D02*
X164691Y166466D01*
X161130Y161633D02*
X164691Y165194D01*
X162113Y161343D02*
X164691Y163921D01*
X157114Y160161D02*
X164614Y167662D01*
X158264Y175313D02*
X164342Y181390D01*
X160352Y188856D02*
X163750Y192253D01*
X156037Y160358D02*
X163738Y168059D01*
X156991Y175313D02*
X163472Y181793D01*
X161533Y173490D02*
X163243Y175200D01*
X156666Y162259D02*
X163235Y168828D01*
X160352Y185037D02*
X163223Y187908D01*
X159571Y182983D02*
X163223Y186635D01*
X159571Y181711D02*
X163223Y185362D01*
X159540Y180407D02*
X163223Y184090D01*
X152872Y172466D02*
X163223Y182817D01*
X156546Y163412D02*
X163215Y170081D01*
X162814Y173499D02*
X163214Y173899D01*
X160003Y189780D02*
X162422Y192198D01*
X160221Y168360D02*
X162351Y170490D01*
X155209Y190076D02*
X161948Y196816D01*
X159027Y190076D02*
X161562Y192611D01*
X157153Y193294D02*
X161260Y197400D01*
X160283Y169694D02*
X161078Y170490D01*
X157754Y190076D02*
X160962Y193284D01*
X156348Y189943D02*
X160645Y194240D01*
X157448Y194861D02*
X159987Y197400D01*
X157093Y195779D02*
X158714Y197400D01*
X152872Y173739D02*
X158372Y179239D01*
X156063Y164201D02*
X157625Y165764D01*
X156466Y196425D02*
X157441Y197400D01*
X152685Y174825D02*
X157069Y179209D01*
X155326Y164738D02*
X156669Y166081D01*
X153936Y190076D02*
X156313Y192453D01*
X154273Y164958D02*
X155996Y166681D01*
X151893Y175306D02*
X155796Y179209D01*
X152872Y171193D02*
X155790Y174111D01*
X152858Y169907D02*
X155790Y172838D01*
X149135Y164911D02*
X155790Y171565D01*
X150339Y164842D02*
X155790Y170293D01*
X151152Y164382D02*
X155640Y168870D01*
X152141Y164098D02*
X155584Y167541D01*
X152510Y189923D02*
X154745Y192158D01*
X150627Y175313D02*
X154523Y179209D01*
X151390Y190076D02*
X153827Y192513D01*
X142277Y186054D02*
X153621Y197398D01*
X149353Y175311D02*
X153251Y179209D01*
X150118Y190076D02*
X153181Y193140D01*
X142973Y185477D02*
X152978Y195482D01*
X144002Y185234D02*
X152802Y194034D01*
X149599Y194648D02*
X152350Y197400D01*
X146669Y173900D02*
X151978Y179209D01*
X147050Y164098D02*
X151944Y168992D01*
X149309Y195631D02*
X151077Y197400D01*
X146695Y175198D02*
X150705Y179209D01*
X145777Y164098D02*
X150657Y168979D01*
X148728Y196323D02*
X149805Y197400D01*
X146695Y176471D02*
X149715Y179491D01*
X144504Y164098D02*
X149385Y168979D01*
X146695Y177744D02*
X149172Y180221D01*
X146381Y178703D02*
X149091Y181412D01*
X146694Y180288D02*
X148888Y182483D01*
X143232Y164098D02*
X148539Y169406D01*
X138783Y164741D02*
X148311Y174269D01*
X145275Y185234D02*
X148309Y188268D01*
X146343Y185029D02*
X148309Y186995D01*
X139525Y164210D02*
X148309Y172995D01*
X140686Y164098D02*
X148309Y171722D01*
X141959Y164098D02*
X148309Y170449D01*
X141153Y186203D02*
X147084Y192134D01*
X140051Y186373D02*
X146101Y192424D01*
X137389Y188803D02*
X145933Y197346D01*
X137726Y164957D02*
X145828Y173059D01*
X139927Y187522D02*
X145409Y193004D01*
X139608Y188477D02*
X144974Y193843D01*
X138662Y188803D02*
X144967Y195108D01*
X141729Y194415D02*
X144713Y197400D01*
X139927Y168430D02*
X144530Y173034D01*
X141438Y158486D02*
X143659Y160708D01*
X141514Y195474D02*
X143441Y197400D01*
X139927Y169703D02*
X143257Y173034D01*
X142226Y158002D02*
X142916Y158692D01*
X140327Y158648D02*
X142777Y161098D01*
X140981Y196213D02*
X142168Y197400D01*
X139927Y170976D02*
X142101Y173151D01*
X137890Y175303D02*
X141970Y179383D01*
X139927Y172249D02*
X141531Y173853D01*
X133839Y153433D02*
X141504Y161098D01*
X136617Y175303D02*
X141504Y180190D01*
X135344Y175303D02*
X141494Y181453D01*
X139122Y175262D02*
X141494Y177635D01*
X139816Y174684D02*
X141494Y176362D01*
X139927Y173522D02*
X141494Y175089D01*
X134071Y175303D02*
X141459Y182690D01*
X140407Y196912D02*
X140895Y197400D01*
X139927Y182431D02*
X140698Y183203D01*
X138364Y150322D02*
X140614Y152571D01*
X139225Y149909D02*
X140614Y151298D01*
X139862Y149274D02*
X140614Y150025D01*
X137359Y150589D02*
X140526Y153756D01*
X133511Y154378D02*
X140232Y161098D01*
X136710Y151213D02*
X139626Y154128D01*
X136116Y188803D02*
X139443Y192129D01*
X135757Y151533D02*
X138869Y154644D01*
X132923Y161426D02*
X138599Y167103D01*
X134843Y188803D02*
X138385Y192344D01*
X135177Y152226D02*
X138364Y155413D01*
X134192Y152514D02*
X138202Y156523D01*
X127933Y186983D02*
X138195Y197245D01*
X132904Y155044D02*
X138122Y160261D01*
X137355Y179859D02*
X138098Y180603D01*
X133571Y188803D02*
X137645Y192878D01*
X132115Y161891D02*
X137326Y167103D01*
X128478Y184983D02*
X137159Y193664D01*
X133832Y194156D02*
X137077Y197400D01*
X128459Y186237D02*
X137032Y194810D01*
X133597Y157010D02*
X136974Y160386D01*
X134171Y158856D02*
X136187Y160872D01*
X131070Y162119D02*
X136054Y167103D01*
X133710Y195306D02*
X135804Y197400D01*
X133985Y159943D02*
X135652Y161610D01*
X132798Y175302D02*
X135495Y178000D01*
X133547Y160778D02*
X135436Y162667D01*
X129802Y162124D02*
X134781Y167103D01*
X133225Y196094D02*
X134531Y197400D01*
X123914Y167691D02*
X134298Y178075D01*
X128529Y162124D02*
X133508Y167103D01*
X123636Y168686D02*
X133487Y178537D01*
X132570Y196712D02*
X133258Y197400D01*
X127531Y173853D02*
X132931Y179254D01*
X132410Y155822D02*
X132754Y156167D01*
X127928Y175523D02*
X132679Y180275D01*
X127074Y161941D02*
X132346Y167213D01*
X127587Y176455D02*
X132053Y180921D01*
X126810Y187133D02*
X131829Y192152D01*
X128322Y170826D02*
X131727Y174231D01*
X128478Y183710D02*
X131727Y186959D01*
X127998Y181957D02*
X131727Y185686D01*
X128471Y181158D02*
X131727Y184413D01*
X128478Y179892D02*
X131727Y183141D01*
X128478Y178619D02*
X131727Y181868D01*
X129505Y170736D02*
X131727Y172958D01*
X130309Y170267D02*
X131727Y171685D01*
X130875Y169561D02*
X131727Y170413D01*
X125660Y161800D02*
X131718Y167858D01*
X125537Y187133D02*
X130678Y192275D01*
X120747Y187435D02*
X130416Y197103D01*
X119937Y182806D02*
X129890Y192759D01*
X125896Y193856D02*
X129440Y197400D01*
X120584Y184726D02*
X129355Y193496D01*
X120775Y186190D02*
X129137Y194552D01*
X125592Y163005D02*
X128731Y166144D01*
X125894Y195127D02*
X128167Y197400D01*
X123138Y169460D02*
X126934Y173257D01*
X125461Y195967D02*
X126894Y197400D01*
X124115Y166619D02*
X126418Y168922D01*
X124787Y196566D02*
X125622Y197400D01*
X122459Y170054D02*
X125264Y172860D01*
X106117Y163895D02*
X124790Y182568D01*
X121588Y170456D02*
X124332Y173200D01*
X105608Y164659D02*
X124294Y183345D01*
X103748Y165344D02*
X124278Y185874D01*
X104846Y165170D02*
X124278Y184601D01*
X106288Y162793D02*
X124278Y180783D01*
X120577Y188537D02*
X124255Y192215D01*
X115120Y170352D02*
X124138Y179370D01*
X116629Y170588D02*
X124091Y178050D01*
X120447Y170588D02*
X123676Y173817D01*
X117902Y170588D02*
X123408Y176095D01*
X119174Y170588D02*
X123284Y174698D01*
X120298Y189531D02*
X122983Y192216D01*
X118392Y192716D02*
X122585Y196909D01*
X119930Y190436D02*
X122143Y192649D01*
X117747Y193344D02*
X121803Y197400D01*
X119486Y191265D02*
X121561Y193339D01*
X118972Y192023D02*
X121268Y194319D01*
X117039Y193908D02*
X120530Y197400D01*
X116263Y194406D02*
X119258Y197400D01*
X115417Y194832D02*
X117985Y197400D01*
X114491Y195179D02*
X116712Y197400D01*
X101343Y164212D02*
X115619Y178488D01*
X113472Y195433D02*
X115439Y197400D01*
X113754Y163895D02*
X114436Y164577D01*
X112339Y195573D02*
X114166Y197400D01*
X112481Y163895D02*
X113825Y165239D01*
X106248Y170390D02*
X113699Y177841D01*
X109393Y162080D02*
X113341Y166028D01*
X106891Y162124D02*
X113309Y168541D01*
X108164Y162124D02*
X113085Y167044D01*
X111049Y195556D02*
X112894Y197400D01*
X106181Y171596D02*
X112236Y177650D01*
X109509Y195288D02*
X111621Y197400D01*
X110349Y161763D02*
X111400Y162814D01*
X105722Y172410D02*
X110990Y177678D01*
X107347Y194399D02*
X110348Y197400D01*
X105009Y172969D02*
X109888Y177849D01*
X106293Y194618D02*
X109075Y197400D01*
X103992Y173225D02*
X108894Y178127D01*
X101516Y172022D02*
X107989Y178495D01*
X106013Y195610D02*
X107802Y197400D01*
X106155Y177933D02*
X107161Y178939D01*
X105438Y196309D02*
X106530Y197400D01*
X101100Y172878D02*
X104744Y176523D01*
X101100Y165242D02*
X104413Y168555D01*
X101100Y174151D02*
X103393Y176444D01*
X101100Y166515D02*
X103207Y168622D01*
X101100Y175424D02*
X102525Y176849D01*
X101100Y167787D02*
X102394Y169081D01*
X101100Y176697D02*
X101897Y177494D01*
X101100Y169060D02*
X101738Y169698D01*
X171104Y121210D02*
X170004D01*
X168504Y124210D02*
Y121610D01*
X178191Y121210D02*
X177091D01*
X175591Y124210D02*
Y121610D01*
X172991Y121210D02*
X174091D01*
X145276Y105987D02*
Y107480D01*
X163542Y143750D02*
X164642D01*
X168742D02*
X167642D01*
X171423Y185490D02*
X170323D01*
X167323Y189590D02*
Y185490D01*
X163223D02*
X164323D01*
X167323Y181390D02*
Y185490D01*
X131727Y171203D02*
X132827D01*
X135827Y167103D02*
Y171203D01*
X139927D02*
X138827D01*
X135827Y175303D02*
Y171203D01*
X124278Y184783D02*
X125378D01*
X128478D02*
X127378D01*
X126378Y187133D02*
Y185033D01*
X154331Y183743D02*
Y186024D01*
Y190076D02*
Y187795D01*
X175391Y159843D02*
X172791D01*
X172391Y162443D02*
Y161343D01*
X141494Y176034D02*
X142594D01*
X144094Y173034D02*
Y175634D01*
X146694Y176034D02*
X145594D01*
X107677Y122443D02*
Y123543D01*
X113502Y125039D02*
X110906D01*
X178584Y177116D02*
X177484D01*
X175984Y180116D02*
Y177516D01*
X173384Y177116D02*
X174484D01*
X187139Y151437D02*
X186039D01*
X182939D02*
X184039D01*
X113386Y155790D02*
Y157776D01*
Y163895D02*
Y161909D01*
G54D24*
X131496Y101969D02*
X142126D01*
Y108268*
X129134Y105512D02*
X140551D01*
Y108268*
X123031Y125039D02*
X123268Y124803D01*
X126378*
X129134Y122047*
X131496*
X107677Y135039D02*
Y130039D01*
Y125039*
Y135039D02*
Y140039D01*
X135827Y138976D02*
Y140551D01*
X137795Y142520*
X137402Y108268D02*
Y110630D01*
X131496Y111024D02*
X133858D01*
X134252Y111417*
X131496Y122047D02*
X133858D01*
X146850Y125197D02*
X131496D01*
Y123622*
Y126772D02*
X146850D01*
X131496Y129921D02*
X146850D01*
Y126772*
X115354Y135039D02*
X123031D01*
X115354Y139961D02*
X115433Y140039D01*
X123031*
X115354Y130118D02*
X122953D01*
X123031Y130039*
X126772Y117717D02*
X127953Y118898D01*
X131496*
X124016Y113386D02*
X126772D01*
X129134Y115748*
X131496*
X125197Y121260D02*
X125984Y120472D01*
X131496*
X121654Y109843D02*
X125591D01*
X129921Y114173*
X131496*
X162205Y123622D02*
X150000D01*
Y138976*
X146850Y125197D02*
Y126772D01*
X162205*
X168504Y121210D02*
Y123228D01*
X169685Y124409*
Y128346*
X146850Y123622D02*
X150000D01*
X151575Y138976D02*
Y141732D01*
X159449Y138976D02*
X164567D01*
X162205Y131496D02*
X162343Y131358D01*
X172047*
X162205Y126772D02*
X164173D01*
X165748Y128346*
X169685*
X162205Y125197D02*
X166142D01*
X162205Y122047D02*
X165748D01*
Y118160*
X172441*
X175591Y115010*
X162205Y111024D02*
X166142D01*
X156299Y108268D02*
Y104331D01*
X174409*
X146850Y108268D02*
Y110630D01*
X143701Y108268D02*
Y110630D01*
X172047Y136358D02*
Y142520D01*
X178346Y136358D02*
Y142913D01*
Y131358D02*
Y127953D01*
X179528Y126772*
X184252Y136358D02*
Y139370D01*
X168504Y108268D02*
Y115010D01*
X184252Y125591D02*
Y131358D01*
X145276Y101969D02*
X177953D01*
X179528Y103543*
X146850Y125197D02*
Y123622D01*
X137795Y148031D02*
Y142520D01*
X138583Y141732*
X148425*
Y138976*
X135039Y158268D02*
X139370Y153937D01*
X156034*
X135039Y158268D02*
Y170415D01*
X135827Y171203*
X137795Y162598D02*
X149606D01*
X107677Y145039D02*
Y149606D01*
X108209Y150138*
X133465*
X125591Y175197D02*
Y178996D01*
X126378Y179783*
X118504Y159843D02*
Y154724D01*
X120472Y152756*
X127165*
X121063Y159843D02*
Y155512D01*
X129134*
X131496Y153150*
X123622Y159843D02*
Y163386D01*
X128740Y168504*
X115748Y144882D02*
X122874D01*
X123031Y145039*
X135039Y180315D02*
Y183915D01*
X135827Y184703*
X133465Y150138D02*
X133602Y150000D01*
X135827*
X137795Y148031*
X133465Y145138D02*
X135433Y143169D01*
Y143110*
X135827Y184703D02*
X141626D01*
X144094Y182234*
X144882Y146850D02*
X145079Y147441D01*
X140551Y156299D02*
X157087D01*
X159449Y153937*
X167717*
X171654Y150000*
X175984*
X177953Y148031*
X184252*
X159055Y146850D02*
X174409D01*
X178346Y142913*
X157874Y168110D02*
Y171949D01*
X158071Y172146*
X149606Y162598D02*
X154331D01*
X156034Y153937D02*
Y153032D01*
Y144094*
X166142*
Y143750*
X145079Y150984D02*
X145276Y151181D01*
Y151575*
X147835Y150984D02*
X148425Y151575D01*
X147835Y147441D02*
X148031Y147244D01*
Y146850*
X158071Y172146D02*
X158226Y171990D01*
X167323*
X150591Y186909D02*
Y180709D01*
X158071*
Y186909*
X178346Y156693D02*
X184783D01*
X185039Y156437*
X160236Y151575D02*
X162549D01*
X164173Y149950*
X166142*
X160236Y159449D02*
X160630Y159843D01*
X166191*
X167323Y171990D02*
X174910D01*
X175984Y170916*
X177254*
X179921Y168248*
X185039*
X145276Y158661D02*
X157480D01*
X159843Y156299*
X170866*
X172047Y155118*
Y154724*
X185039Y163248D02*
Y156437D01*
X144094Y182234D02*
X144144Y182283D01*
X145965*
X150591Y186909*
X166191Y159843D02*
Y170859D01*
X167323Y171990*
G54D35*
X145079Y147047D02*
Y147835D01*
X147835Y147047D02*
Y147835D01*
Y150591D02*
Y151378D01*
X145079Y150591D02*
Y151378D01*
G54D36*
X133465Y144888D02*
Y145388D01*
Y149888D02*
Y150388D01*
X185039Y151187D02*
Y151687D01*
Y156187D02*
Y156687D01*
Y162998D02*
Y163498D01*
Y167998D02*
Y168498D01*
X126378Y185033D02*
Y184533D01*
Y180033D02*
Y179533D01*
X184252Y131108D02*
Y131608D01*
Y136108D02*
Y136608D01*
X178346Y131108D02*
Y131608D01*
Y136108D02*
Y136608D01*
X172047D02*
Y136108D01*
Y131608D02*
Y131108D01*
G54D49*
X195588Y186614D02*
X194488D01*
X186614Y195588D02*
Y194488D01*
X177640Y186614D02*
X178740D01*
X186614Y177640D02*
Y178740D01*
X195588Y111811D02*
X194488D01*
X186614Y120785D02*
Y119685D01*
X177640Y111811D02*
X178740D01*
X186614Y102837D02*
Y103937D01*
X111811Y102837D02*
Y103937D01*
X120785Y186614D02*
X119685D01*
X111811Y195588D02*
Y194488D01*
Y177640D02*
Y178740D01*
X102837Y186614D02*
X103937D01*
X111811Y120785D02*
Y119685D01*
X102837Y111811D02*
X103937D01*
X122045Y103937D02*
X120945D01*
X119685Y106297D02*
Y105197D01*
X117325Y103937D02*
X118425D01*
X106297D02*
X105197D01*
X103937Y106297D02*
Y105197D01*
Y121262D02*
Y122362D01*
X106297Y155118D02*
X105197D01*
X103937Y152758D02*
Y153858D01*
X106297Y162992D02*
X105197D01*
X103937Y165352D02*
Y164252D01*
X106297Y170866D02*
X105197D01*
X103937Y173226D02*
Y172126D01*
Y168506D02*
Y169606D01*
X106297Y178740D02*
X105197D01*
X103937Y176380D02*
Y177480D01*
Y181100D02*
Y180000D01*
X106297Y194488D02*
X105197D01*
X103937Y192128D02*
Y193228D01*
X125982Y194488D02*
X124882D01*
X121262D02*
X122362D01*
X123622Y192128D02*
Y193228D01*
X133856Y194488D02*
X132756D01*
X129136D02*
X130236D01*
X131496Y192128D02*
Y193228D01*
X141730Y194488D02*
X140630D01*
X137010D02*
X138110D01*
X139370Y192128D02*
Y193228D01*
X149604Y194488D02*
X148504D01*
X144884D02*
X145984D01*
X147244Y192128D02*
Y193228D01*
X157478Y194488D02*
X156378D01*
X152758D02*
X153858D01*
X155118Y192128D02*
Y193228D01*
X165352Y194488D02*
X164252D01*
X160632D02*
X161732D01*
X162992Y192128D02*
Y193228D01*
X173226Y194488D02*
X172126D01*
X168506D02*
X169606D01*
X170866Y192128D02*
Y193228D01*
X181100Y194488D02*
X180000D01*
X176380D02*
X177480D01*
X178740Y192128D02*
Y193228D01*
X192128Y194488D02*
X193228D01*
X194488Y192128D02*
Y193228D01*
Y106297D02*
Y105197D01*
X192128Y103937D02*
X193228D01*
X194488Y125982D02*
Y124882D01*
X192128Y123622D02*
X193228D01*
X194488Y121262D02*
Y122362D01*
Y133856D02*
Y132756D01*
X192128Y131496D02*
X193228D01*
X194488Y129136D02*
Y130236D01*
Y141730D02*
Y140630D01*
X192128Y139370D02*
X193228D01*
X194488Y137010D02*
Y138110D01*
Y149604D02*
Y148504D01*
X192128Y147244D02*
X193228D01*
X194488Y144884D02*
Y145984D01*
Y157478D02*
Y156378D01*
X192128Y155118D02*
X193228D01*
X194488Y152758D02*
Y153858D01*
Y165352D02*
Y164252D01*
X192128Y162992D02*
X193228D01*
X194488Y160632D02*
Y161732D01*
Y173226D02*
Y172126D01*
X192128Y170866D02*
X193228D01*
X194488Y168506D02*
Y169606D01*
Y181100D02*
Y180000D01*
X192128Y178740D02*
X193228D01*
X194488Y176380D02*
Y177480D01*
X149525Y104724D02*
X148425D01*
X145357D02*
X146457D01*
G54D52*
X131496Y101969D03*
X129134Y105512D03*
X119685Y103937D03*
X103937D03*
Y123622D03*
Y131496D03*
Y139370D03*
X115354Y135039D03*
Y139961D03*
Y130118D03*
X194488Y103937D03*
Y123622D03*
Y131496D03*
Y139370D03*
X142126Y119685D03*
X153740Y130315D03*
X141732Y131890D03*
X153543Y117126D03*
X168504Y108268D03*
X184252Y125591D03*
X179528Y126772D03*
X174409Y104331D03*
X179528Y103543D03*
X164567Y138976D03*
X184252Y139370D03*
X166142Y125197D03*
Y111024D03*
X127165Y152756D03*
X131496Y153150D03*
X103937Y155118D03*
Y162992D03*
Y170866D03*
Y178740D03*
Y194488D03*
X123622D03*
X131496D03*
X139370D03*
X137795Y162598D03*
X125591Y175197D03*
X137795Y148031D03*
X115748Y144882D03*
X128740Y168504D03*
X135039Y180315D03*
X147244Y194488D03*
X155118D03*
X162992D03*
X170866D03*
X178740D03*
X194488D03*
Y147244D03*
Y155118D03*
Y162992D03*
Y170866D03*
X140551Y156299D03*
X194488Y178740D03*
X154331Y162598D03*
X159055Y146850D03*
X157874Y168110D03*
X149606Y162598D03*
X172047Y154724D03*
Y142520D03*
X178346Y156693D03*
Y142913D03*
X160236Y151575D03*
Y159449D03*
X184252Y148031D03*
X145276Y158661D03*
G54D55*
X142206Y154218D02*
Y144194D01*
X156197*
Y154218*
X142206*
X155519Y153839D02*
X155807Y153550D01*
Y144875*
X155519Y144587*
X142906*
X142618Y144875*
X142615Y153550*
X142903Y153839*
X155519*
X142323Y144194D02*
Y154218D01*
X142815Y144194D02*
Y144678D01*
Y153750D02*
Y154218D01*
X143307Y144194D02*
Y144587D01*
Y153839D02*
Y154218D01*
X143799Y144194D02*
Y144587D01*
Y153839D02*
Y154218D01*
X144291Y144194D02*
Y144587D01*
Y153839D02*
Y154218D01*
X144783Y144194D02*
Y144587D01*
Y153839D02*
Y154218D01*
X145276Y144194D02*
Y144587D01*
Y153839D02*
Y154218D01*
X145768Y144194D02*
Y144587D01*
Y153839D02*
Y154218D01*
X146260Y144194D02*
Y144587D01*
Y153839D02*
Y154218D01*
X146752Y144194D02*
Y144587D01*
Y153839D02*
Y154218D01*
X147244Y144194D02*
Y144587D01*
Y153839D02*
Y154218D01*
X147736Y144194D02*
Y144587D01*
Y153839D02*
Y154218D01*
X148228Y144194D02*
Y144587D01*
Y153839D02*
Y154218D01*
X148720Y144194D02*
Y144587D01*
Y153839D02*
Y154218D01*
X149213Y144194D02*
Y144587D01*
Y153839D02*
Y154218D01*
X149705Y144194D02*
Y144587D01*
Y153839D02*
Y154218D01*
X150197Y144194D02*
Y144587D01*
Y153839D02*
Y154218D01*
X150689Y144194D02*
Y144587D01*
Y153839D02*
Y154218D01*
X151181Y144194D02*
Y144587D01*
Y153839D02*
Y154218D01*
X151673Y144194D02*
Y144587D01*
Y153839D02*
Y154218D01*
X152165Y144194D02*
Y144587D01*
Y153839D02*
Y154218D01*
X152657Y144194D02*
Y144587D01*
Y153839D02*
Y154218D01*
X153150Y144194D02*
Y144587D01*
Y153839D02*
Y154218D01*
X153642Y144194D02*
Y144587D01*
Y153839D02*
Y154218D01*
X154134Y144194D02*
Y144587D01*
Y153839D02*
Y154218D01*
X154626Y144194D02*
Y144587D01*
Y153839D02*
Y154218D01*
X155118Y144194D02*
Y144587D01*
Y153839D02*
Y154218D01*
X155610Y144194D02*
Y144678D01*
Y153747D02*
Y154218D01*
X156102Y144194D02*
Y154218D01*
G54D56*
X156034Y153032D03*
G54D57*
X158071Y187795D02*
Y186024D01*
X154331Y187795D02*
Y186024D01*
X150591Y187795D02*
Y186024D01*
Y173031D02*
Y171260D01*
X158071Y173031D02*
Y171260D01*
G54D58*
X111811Y186614D03*
X186614D03*
Y111811D03*
X111811D03*
G54D60*
X126772Y117717D03*
X133858Y122047D03*
X137402Y110630D03*
X134252Y111417D03*
X124016Y113386D03*
X125197Y121260D03*
X121654Y109843D03*
X147441Y104724D03*
X146850Y110630D03*
X145276Y101969D03*
X143701Y110630D03*
X135433Y143110D03*
X144882Y146850D03*
X148425Y151575D03*
X145276D03*
X148031Y146850D03*
X151575Y141732D03*
G54D74*
X123622Y161909D02*
Y157776D01*
X121063Y161909D02*
Y157776D01*
X118504Y161909D02*
Y157776D01*
X115945Y161909D02*
Y157776D01*
X113386Y161909D02*
Y157776D01*
G54D75*
X130906Y158858D02*
X128150D01*
X108858D02*
X106102D01*
X120669Y167323D02*
X116339D01*
G54D76*
X130709Y136220D02*
X132283D01*
X130709Y134646D02*
X132283D01*
X130709Y133071D02*
X132283D01*
X130709Y131496D02*
X132283D01*
X130709Y129921D02*
X132283D01*
X130709Y128346D02*
X132283D01*
X130709Y126772D02*
X132283D01*
X130709Y125197D02*
X132283D01*
X130709Y123622D02*
X132283D01*
X130709Y122047D02*
X132283D01*
X130709Y120472D02*
X132283D01*
X130709Y118898D02*
X132283D01*
X130709Y117323D02*
X132283D01*
X130709Y115748D02*
X132283D01*
X130709Y114173D02*
X132283D01*
X130709Y112598D02*
X132283D01*
X130709Y111024D02*
X132283D01*
X134252Y107480D02*
Y109055D01*
X135827Y107480D02*
Y109055D01*
X137402Y107480D02*
Y109055D01*
X138976Y107480D02*
Y109055D01*
X140551Y107480D02*
Y109055D01*
X142126Y107480D02*
Y109055D01*
X143701Y107480D02*
Y109055D01*
X145276Y107480D02*
Y109055D01*
X146850Y107480D02*
Y109055D01*
X148425Y107480D02*
Y109055D01*
X150000Y107480D02*
Y109055D01*
X151575Y107480D02*
Y109055D01*
X153150Y107480D02*
Y109055D01*
X154724Y107480D02*
Y109055D01*
X156299Y107480D02*
Y109055D01*
X157874Y107480D02*
Y109055D01*
X159449Y107480D02*
Y109055D01*
X161417Y111024D02*
X162992D01*
X161417Y112598D02*
X162992D01*
X161417Y114173D02*
X162992D01*
X161417Y115748D02*
X162992D01*
X161417Y117323D02*
X162992D01*
X161417Y118898D02*
X162992D01*
X161417Y120472D02*
X162992D01*
X161417Y122047D02*
X162992D01*
X161417Y123622D02*
X162992D01*
X161417Y125197D02*
X162992D01*
X161417Y126772D02*
X162992D01*
X161417Y128346D02*
X162992D01*
X161417Y129921D02*
X162992D01*
X161417Y131496D02*
X162992D01*
X161417Y133071D02*
X162992D01*
X161417Y134646D02*
X162992D01*
X161417Y136220D02*
X162992D01*
X159449Y138189D02*
Y139764D01*
X157874Y138189D02*
Y139764D01*
X156299Y138189D02*
Y139764D01*
X154724Y138189D02*
Y139764D01*
X153150Y138189D02*
Y139764D01*
X151575Y138189D02*
Y139764D01*
X150000Y138189D02*
Y139764D01*
X148425Y138189D02*
Y139764D01*
X146850Y138189D02*
Y139764D01*
X145276Y138189D02*
Y139764D01*
X143701Y138189D02*
Y139764D01*
X142126Y138189D02*
Y139764D01*
X140551Y138189D02*
Y139764D01*
X138976Y138189D02*
Y139764D01*
X137402Y138189D02*
Y139764D01*
X135827Y138189D02*
Y139764D01*
X134252Y138189D02*
Y139764D01*
G54D77*
X146850Y123622D03*
G54D78*
X104449Y145039D02*
X110906D01*
X104449Y140039D02*
X110906D01*
X104449Y135039D02*
X110906D01*
X104449Y130039D02*
X110906D01*
X104449Y125039D02*
X110906D01*
X119803D02*
X126260D01*
X119803Y130039D02*
X126260D01*
X119803Y135039D02*
X126260D01*
X119803Y140039D02*
X126260D01*
X119803Y145039D02*
X126260D01*
G74*
X0Y0D02*
M02*
