*
*
G04 PADS Layout (Build Number 2008.43.1) generated Gerber (RS-274-X) file*
G04 PC Version=2.1*
*
%IN "digital MEMs USB v103.p"*%
*
%MOIN*%
*
%FSLAX35Y35*%
*
*
*
*
G04 PC Standard Apertures*
*
*
G04 Thermal Relief Aperture macro.*
%AMTER*
1,1,$1,0,0*
1,0,$1-$2,0,0*
21,0,$3,$4,0,0,45*
21,0,$3,$4,0,0,135*
%
*
*
G04 Annular Aperture macro.*
%AMANN*
1,1,$1,0,0*
1,0,$2,0,0*
%
*
*
G04 Odd Aperture macro.*
%AMODD*
1,1,$1,0,0*
1,0,$1-0.005,0,0*
%
*
*
G04 PC Custom Aperture Macros*
*
*
*
*
*
*
G04 PC Aperture Table*
*
%ADD010C,0.001*%
%ADD022C,0.01*%
%ADD024C,0.008*%
%ADD049C,0.01181*%
%ADD052C,0.0252*%
%ADD058C,0.15748*%
%ADD060C,0.01969*%
%ADD075C,0.04331*%
*
*
*
*
G04 PC Circuitry*
G04 Layer Name digital MEMs USB v103.p - circuitry*
%LPD*%
*
*
G04 PC Custom Flashes*
G04 Layer Name digital MEMs USB v103.p - flashes*
%LPD*%
*
*
G04 PC Circuitry*
G04 Layer Name digital MEMs USB v103.p - circuitry*
%LPD*%
*
G54D10*
G54D22*
G01X155903Y117126D02*
G75*
G03X155903I-2360J0D01*
G01X156100Y130315D02*
G03X156100I-2360J0D01*
G01X197400Y172403D02*
Y177203D01*
G03X196478Y177472I-500J0*
G01X192132Y178607D02*
G03X196478Y177472I2356J133D01*
G01X192132Y178607D02*
G03X191368Y179003I-499J-28D01*
G01X179003Y191368D02*
G03X191368Y179003I7611J-4754D01*
G01X179003Y191368D02*
G03X178607Y192132I-424J265D01*
G01X177472Y196478D02*
G03X178607Y192132I1268J-1990D01*
G01X177472Y196478D02*
G03X177203Y197400I-269J422D01*
G01X172403*
G03X172134Y196478I0J-500*
G01X169598D02*
G03X172134I1268J-1990D01*
G01X169598D02*
G03X169329Y197400I-269J422D01*
G01X164529*
G03X164260Y196478I0J-500*
G01X161724D02*
G03X164260I1268J-1990D01*
G01X161724D02*
G03X161455Y197400I-269J422D01*
G01X156655*
G03X156386Y196478I0J-500*
G01X153850D02*
G03X156386I1268J-1990D01*
G01X153850D02*
G03X153581Y197400I-269J422D01*
G01X148781*
G03X148512Y196478I0J-500*
G01X145976D02*
G03X148512I1268J-1990D01*
G01X145976D02*
G03X145707Y197400I-269J422D01*
G01X140907*
G03X140638Y196478I-0J-500*
G01X138102D02*
G03X140638I1268J-1990D01*
G01X138102D02*
G03X137833Y197400I-269J422D01*
G01X133033*
G03X132764Y196478I-0J-500*
G01X130228D02*
G03X132764I1268J-1990D01*
G01X130228D02*
G03X129959Y197400I-269J422D01*
G01X125159*
G03X124890Y196478I-0J-500*
G01X122354D02*
G03X124890I1268J-1990D01*
G01X122354D02*
G03X122085Y197400I-269J422D01*
G01X105474*
G03X105205Y196478I-0J-500*
G01X106293Y194621D02*
G03X105205Y196478I-2356J-133D01*
G01X106293Y194621D02*
G03X107057Y194226I499J29D01*
G01Y179003D02*
G03Y194226I4754J7611D01*
G01Y179003D02*
G03X106293Y178607I-265J-424D01*
G01X102009Y177380D02*
G03X106293Y178607I1928J1360D01*
G01X102009Y177380D02*
G03X101100Y177092I-409J-288D01*
G01Y172515*
G03X102009Y172226I500J-0*
G01Y169506D02*
G03Y172226I1928J1360D01*
G01Y169506D02*
G03X101100Y169218I-409J-288D01*
G01Y164641*
G03X102009Y164352I500J-0*
G01X106277Y162688D02*
G03X102009Y164352I-2340J304D01*
G01X106277Y162688D02*
G03X106773Y162124I496J-64D01*
G01X108858*
Y155593D02*
G03Y162124I0J3265D01*
G01Y155593D02*
X106797D01*
G03X106297Y155097I-0J-500*
G01X102009Y153758D02*
G03X106297Y155097I1928J1360D01*
G01X102009Y153758D02*
G03X101100Y153470I-409J-288D01*
G01Y141019*
G03X102009Y140730I500J-0*
G01Y138010D02*
G03Y140730I1928J1360D01*
G01Y138010D02*
G03X101100Y137722I-409J-288D01*
G01Y133144*
G03X102009Y132856I500J0*
G01Y130136D02*
G03Y132856I1928J1360D01*
G01Y130136D02*
G03X101100Y129848I-409J-288D01*
G01Y125270*
G03X102009Y124982I500J0*
G01Y122262D02*
G03Y124982I1928J1360D01*
G01Y122262D02*
G03X101100Y121974I-409J-288D01*
G01Y105585*
G03X102009Y105297I500J0*
G01X103804Y106293D02*
G03X102009Y105297I133J-2356D01*
G01X103804Y106293D02*
G03X104200Y107057I-29J499D01*
G01X113490Y120627D02*
G03X104200Y107057I-1679J-8816D01*
G01X113490Y120627D02*
G03X114026Y121350I93J491D01*
G01X113854Y122047D02*
G03X114026Y121350I1500J0D01*
G01X113854Y122047D02*
Y128074D01*
G03X113704Y128431I-500J-0*
G01X114152Y132149D02*
G03X113704Y128431I1202J-2031D01*
G01X114152Y132149D02*
G03Y133009I-255J430D01*
G01Y137070D02*
G03Y133009I1202J-2031D01*
G01Y137070D02*
G03Y137930I-255J430D01*
G01X114329Y142086D02*
G03X114152Y137930I1025J-2125D01*
G01X114329Y142086D02*
G03X114398Y142946I-217J450D01*
G01X118108Y144856D02*
G03X114398Y142946I-2360J26D01*
G01X118108Y144856D02*
G03X118254Y144497I500J-5D01*
G01X123895Y138856*
X124335Y137795D02*
G03X123895Y138856I-1500J0D01*
G01X124335Y137795D02*
Y124450D01*
G03X124481Y124097I500J0*
G01X125100Y123478*
G03X125404Y123334I354J353*
G01X126759Y122640D02*
G03X125404Y123334I-1562J-1380D01*
G01X126759Y122640D02*
G03X127634Y122971I375J331D01*
G01Y149261*
G03X127391Y149690I-500J0*
G01X126394Y150289*
X125953Y150691D02*
G03X126394Y150289I1212J884D01*
G01X125953Y150691D02*
G03X125832Y150809I-404J-295D01*
G01X126547Y155033D02*
G03X125832Y150809I618J-2277D01*
G01X126547Y155033D02*
G03X126646Y155960I-131J483D01*
G01X126814Y161838D02*
G03X126646Y155960I1336J-2980D01*
G01X126814Y161838D02*
G03X126963Y162648I-204J456D01*
G01X124530Y165081*
X124252Y165465D02*
G03X124530Y165081I1339J677D01*
G01X124252Y165465D02*
G03X123389Y165516I-446J-226D01*
G01X120669Y164057D02*
G03X123389Y165516I0J3266D01*
G01X120669Y164057D02*
X116339D01*
Y170588D02*
G03Y164057I-0J-3265D01*
G01Y170588D02*
X120669D01*
X123203Y169383D02*
G03X120669Y170588I-2534J-2060D01*
G01X123203Y169383D02*
G03X124091Y169699I388J316D01*
G01Y173153*
G03X123940Y173510I-500J-0*
G01X127241D02*
G03X123940I-1650J1687D01*
G01X127241D02*
G03X127091Y173153I350J-357D01*
G01Y171123*
G03X127792Y170665I500J-0*
G01X128766Y170864D02*
G03X127792Y170665I-26J-2360D01*
G01X128766Y170864D02*
G03X129125Y171010I5J500D01*
G01X133393Y175278*
G03X133539Y175632I-354J354*
G01Y178271*
G03X133389Y178628I-500J-0*
G01X136690D02*
G03X133389I-1651J1687D01*
G01X136690D02*
G03X136539Y178271I349J-357D01*
G01Y174803*
X136100Y173742D02*
G03X136539Y174803I-1061J1061D01*
G01X136100Y173742D02*
X131246Y168889D01*
G03X131100Y168530I354J-354*
G01X128882Y166148D02*
G03X131100Y168530I-142J2356D01*
G01X128882Y166148D02*
G03X128558Y165296I30J-499D01*
G01X130588Y163265*
X131001Y162484D02*
G03X130588Y163265I-1473J-279D01*
G01X131001Y162484D02*
G03X131415Y162084I492J94D01*
G01X132618Y156078D02*
G03X131415Y162084I-1712J2780D01*
G01X132618Y156078D02*
G03X132638Y155215I262J-426D01*
G01X133146Y151463D02*
G03X132638Y155215I-1650J1687D01*
G01X133146Y151463D02*
G03X132996Y151105I350J-358D01*
G01Y144821*
G03X133871Y144490I500J-0*
G01X136678Y144782D02*
G03X133871Y144490I-1245J-1672D01*
G01X136678Y144782D02*
G03X137476Y145183I298J401D01*
G01Y145291*
G03X137120Y145770I-500J0*
G01X136145Y149718D02*
G03X137120Y145770I1650J-1687D01*
G01X136145Y149718D02*
G03X136295Y150076I-350J358D01*
G01Y160554*
G03X136145Y160912I-500J0*
G01X139446D02*
G03X136145I-1651J1686D01*
G01X139446D02*
G03X139295Y160554I349J-358D01*
G01Y159057*
G03X139927Y158575I500J0*
G01X142096Y158084D02*
G03X139927Y158575I-1545J-1785D01*
G01X142096Y158084D02*
G03X142921Y158497I327J378D01*
G01X147199Y160029D02*
G03X142921Y158497I-1923J-1368D01*
G01X147199Y160029D02*
G03X148106Y160319I407J290D01*
G01Y160554*
G03X147956Y160912I-500J0*
G01X151556Y163929D02*
G03X147956Y160912I-1950J-1331D01*
G01X151556Y163929D02*
G03X152381I413J282D01*
G01X154356Y164958D02*
G03X152381Y163929I-25J-2360D01*
G01X154356Y164958D02*
G03X154715Y165105I6J500D01*
G01X154715D02*
X155822Y166211D01*
G03X155889Y166835I-354J353*
G01X159523Y166422D02*
G03X155889Y166835I-1649J1688D01*
G01X159523Y166422D02*
G03X159373Y166084I350J-357D01*
G01X158935Y165081D02*
G03X159373Y166084I-1061J1061D01*
G01X158935Y165081D02*
X156837Y162983D01*
G03X156690Y162624I353J-353*
G01X152381Y161268D02*
G03X156690Y162624I1950J1330D01*
G01X152381Y161268D02*
G03X151556I-412J-282D01*
G01X151257Y160912D02*
G03X151556Y161268I-1651J1686D01*
G01X151257Y160912D02*
G03X151106Y160554I349J-358D01*
G01Y152756*
X151085Y152501D02*
G03X151106Y152756I-1479J255D01*
G01X151085Y152501D02*
G03X151798Y151967I492J-85D01*
G01X156122Y148452D02*
G03X151798Y151967I-2972J761D01*
G01X156122Y148452D02*
G03X157035Y148070I485J-123D01*
G01X158342Y149100D02*
G03X157035Y148070I713J-2250D01*
G01X158342Y149100D02*
G03X158548Y149926I-152J476D01*
G01X158586Y153262D02*
G03X158548Y149926I1650J-1687D01*
G01X158586Y153262D02*
G03X158736Y153619I-350J357D01*
G01Y157405*
G03X158586Y157762I-500J-0*
G01X161887D02*
G03X158586I-1651J1687D01*
G01X161887D02*
G03X161736Y157405I349J-357D01*
G01Y153619*
G03X161887Y153262I500J-0*
G01X162574Y151896D02*
G03X161887Y153262I-2338J-321D01*
G01X162574Y151896D02*
G03X162716Y151610I496J68D01*
G01X163265Y151061*
X163705Y150000D02*
G03X163265Y151061I-1500J0D01*
G01X163705Y150000D02*
Y142167D01*
G03X163851Y141813I500J0*
G01X164182Y141483*
G03X164541Y141336I354J353*
G01X166927Y138951D02*
G03X164541Y141336I-2360J25D01*
G01X166927Y138951D02*
G03X167073Y138592I500J-6D01*
G01X167202Y138462*
X167642Y137402D02*
G03X167202Y138462I-1500J-0D01*
G01X167642Y137402D02*
Y127241D01*
G03X167792Y126884I500J0*
G01Y123510D02*
G03Y126884I-1650J1687D01*
G01Y123510D02*
G03X167642Y123153I350J-357D01*
G01Y113068*
G03X167792Y112710I500J-0*
G01X168501Y111073D02*
G03X167792Y112710I-2359J-49D01*
G01X168501Y111073D02*
G03X168914Y110592I500J11D01*
G01X168478Y105908D02*
G03X168914Y110592I26J2360D01*
G01X168478Y105908D02*
G03X168119Y105762I-5J-500D01*
G01X167202Y104845*
X166142Y104405D02*
G03X167202Y104845I-0J1501D01*
G01X166142Y104405D02*
X150000D01*
X149920Y104408D02*
G03X150000Y104405I80J1498D01*
G01X149920Y104408D02*
G03X149419Y104066I-27J-500D01*
G01X147772Y102667D02*
G03X149419Y104066I-331J2057D01*
G01X147772Y102667D02*
G03X147353Y102133I80J-494D01*
G01X147339Y101671D02*
G03X147353Y102133I-2063J298D01*
G01X147339Y101671D02*
G03X147833Y101100I494J-71D01*
G01X173560*
G03X173708Y102077I-0J500*
G01X172759Y106018D02*
G03X173708Y102077I1650J-1687D01*
G01X172759Y106018D02*
G03X172909Y106375I-350J357D01*
G01Y115354*
Y120472*
X173349Y121533D02*
G03X172909Y120472I1060J-1061D01*
G01X173349Y121533D02*
X177211Y125395D01*
G03X177324Y125927I-354J353*
G01X181777Y127485D02*
G03X177324Y125927I-2249J-713D01*
G01X181777Y127485D02*
G03X182603Y127279I477J151D01*
G01X184088Y123236D02*
G03X182603Y127279I164J2355D01*
G01X184088Y123236D02*
G03X183721Y123111I-35J-498D01*
G01X178833Y118767*
G03X178665Y118393I332J-374*
G01Y117665*
G03X179558Y117356I500J0*
G01X194226Y107057D02*
G03X179558Y117356I-7612J4754D01*
G01X194226Y107057D02*
G03X194621Y106293I424J-265D01*
G01X196478Y105205D02*
G03X194621Y106293I-1990J-1268D01*
G01X196478Y105205D02*
G03X197400Y105474I422J269D01*
G01Y122085*
G03X196478Y122354I-500J0*
G01Y124890D02*
G03Y122354I-1990J-1268D01*
G01Y124890D02*
G03X197400Y125159I422J269D01*
G01Y129959*
G03X196478Y130228I-500J0*
G01Y132764D02*
G03Y130228I-1990J-1268D01*
G01Y132764D02*
G03X197400Y133033I422J269D01*
G01Y137833*
G03X196478Y138102I-500J0*
G01Y140638D02*
G03Y138102I-1990J-1268D01*
G01Y140638D02*
G03X197400Y140907I422J269D01*
G01Y145707*
G03X196478Y145976I-500J0*
G01Y148512D02*
G03Y145976I-1990J-1268D01*
G01Y148512D02*
G03X197400Y148781I422J269D01*
G01Y153581*
G03X196478Y153850I-500J0*
G01Y156386D02*
G03Y153850I-1990J-1268D01*
G01Y156386D02*
G03X197400Y156655I422J269D01*
G01Y161455*
G03X196478Y161724I-500J0*
G01Y164260D02*
G03Y161724I-1990J-1268D01*
G01Y164260D02*
G03X197400Y164529I422J269D01*
G01Y169329*
G03X196478Y169598I-500J0*
G01Y172134D02*
G03Y169598I-1990J-1268D01*
G01Y172134D02*
G03X197400Y172403I422J269D01*
G01Y180277D02*
Y192951D01*
G03X196478Y193220I-500J0*
G01X194621Y192132D02*
G03X196478Y193220I-133J2356D01*
G01X194621Y192132D02*
G03X194226Y191368I29J-499D01*
G01Y181860D02*
G03Y191368I-7612J4754D01*
G01Y181860D02*
G03X194621Y181096I424J-265D01*
G01X196478Y180008D02*
G03X194621Y181096I-1990J-1268D01*
G01X196478Y180008D02*
G03X197400Y180277I422J269D01*
G01X193220Y196478D02*
G03X192951Y197400I-269J422D01*
G01X180277*
G03X180008Y196478I0J-500*
G01X181096Y194621D02*
G03X180008Y196478I-2356J-133D01*
G01X181096Y194621D02*
G03X181860Y194226I499J29D01*
G01X191368D02*
G03X181860I-4754J-7612D01*
G01X191368D02*
G03X192132Y194621I265J424D01*
G01X193220Y196478D02*
G03X192132Y194621I1268J-1990D01*
G01X104200Y191368D02*
G03X103804Y192132I-425J265D01*
G01X102009Y193128D02*
G03X103804Y192132I1928J1360D01*
G01X102009Y193128D02*
G03X101100Y192840I-409J-288D01*
G01Y180389*
G03X102009Y180100I500J-0*
G01X103804Y181096D02*
G03X102009Y180100I133J-2356D01*
G01X103804Y181096D02*
G03X104200Y181860I-29J499D01*
G01Y191368D02*
G03Y181860I7611J-4754D01*
G01X118037Y101100D02*
G03X118325Y102009I-0J500D01*
G01X117329Y103804D02*
G03X118325Y102009I2356J133D01*
G01X117329Y103804D02*
G03X116565Y104200I-499J-29D01*
G01X107057D02*
G03X116565I4754J7611D01*
G01X107057D02*
G03X106293Y103804I-265J-425D01*
G01X105297Y102009D02*
G03X106293Y103804I-1360J1928D01*
G01X105297Y102009D02*
G03X105585Y101100I288J-409D01*
G01X118037*
X129211Y102557D02*
G03X128798Y103176I-485J124D01*
G01X127484Y107199D02*
G03X128798Y103176I1650J-1687D01*
G01X127484Y107199D02*
G03X127634Y107556I-350J357D01*
G01Y115158*
G03X127064Y115653I-500J-0*
G01X126162Y115723D02*
G03X127064Y115653I610J1994D01*
G01X126162Y115723D02*
G03X125516Y115245I-146J-478D01*
G01Y115022*
G03X125629Y114706I500J0*
G01X124046Y111302D02*
G03X125629Y114706I-30J2084D01*
G01X124046Y111302D02*
G03X123589Y110616I7J-500D01*
G01X120573Y108060D02*
G03X123589Y110616I1081J1783D01*
G01X120573Y108060D02*
G03X119865Y107853I-259J-427D01*
G01X119422Y107057D02*
G03X119865Y107853I-7611J4754D01*
G01X119422Y107057D02*
G03X119818Y106293I425J-265D01*
G01X121045Y102009D02*
G03X119818Y106293I-1360J1928D01*
G01X121045Y102009D02*
G03X121333Y101100I288J-409D01*
G01X128660*
G03X129156Y101664I0J500*
G01X129211Y102557D02*
G03X129156Y101664I2285J-588D01*
G01X146381Y106519D02*
G03X146481Y107303I-254J431D01*
G01X145790Y107994*
X145439Y108547D02*
G03X145790Y107994I1411J508D01*
G01X145439Y108547D02*
G03X144723Y108814I-471J-169D01*
G01X141627Y110423D02*
G03X144723Y108814I2074J207D01*
G01X141627Y110423D02*
G03X141483Y110726I-498J-50D01*
G01X140063Y112146*
G03X139263Y111568I-354J-353*
G01X139015Y109310D02*
G03X139263Y111568I-1613J1320D01*
G01X139015Y109310D02*
G03X138902Y108993I387J-317D01*
G01Y103969*
G03X139402Y103469I500J-0*
G01X143639*
G03X143956Y103582I0J500*
G01X144944Y104026D02*
G03X143956Y103582I332J-2057D01*
G01X144944Y104026D02*
G03X145363Y104559I-79J494D01*
G01X146381Y106519D02*
G03X145363Y104559I1060J-1795D01*
G01X145350Y112944D02*
Y118815D01*
G03X144374Y118967I-500J0*
G01X141177Y117524D02*
G03X144374Y118967I949J2161D01*
G01X141177Y117524D02*
G03X140476Y117066I-201J-458D01*
G01Y115998*
G03X140772Y115542I500J-0*
G01X141218Y115234D02*
G03X140772Y115542I-1061J-1061D01*
G01X141218Y115234D02*
X143604Y112848D01*
G03X143908Y112704I354J353*
G01X144628Y112497D02*
G03X143908Y112704I-927J-1867D01*
G01X144628Y112497D02*
G03X145350Y112944I222J447D01*
G01X150195Y143295D02*
G03X149864Y144169I-331J374D01*
G01X149213*
X148152Y144609D02*
G03X149213Y144169I1061J1060D01*
G01X148152Y144609D02*
X148128Y144632D01*
G03X147824Y144776I-353J-353*
G01X146761Y145198D02*
G03X147824Y144776I1270J1652D01*
G01X146761Y145198D02*
G03X146152I-304J-397D01*
G01X142808Y146643D02*
G03X146152Y145198I2074J207D01*
G01X142808Y146643D02*
G03X142664Y146947I-498J-50D01*
G01X141000Y148611*
G03X140148Y148218I-354J-353*
G01X140154Y147956D02*
G03X140148Y148218I-2359J75D01*
G01X140154Y147956D02*
G03X140234Y147667I500J-16D01*
G01X140476Y146850D02*
G03X140234Y147667I-1500J0D01*
G01X140476Y146850D02*
Y134648D01*
G03X141109Y134166I500J-0*
G01Y129614D02*
G03Y134166I623J2276D01*
G01Y129614D02*
G03X140476Y129132I-133J-482D01*
G01Y122304*
G03X141177Y121846I500J-0*
G01X144374Y120403D02*
G03X141177Y121846I-2248J-718D01*
G01X144374Y120403D02*
G03X145350Y120555I476J152D01*
G01Y137008*
X145790Y138069D02*
G03X145350Y137008I1060J-1061D01*
G01X145790Y138069D02*
X149357Y141636D01*
G03X149501Y141940I-354J353*
G01X150195Y143295D02*
G03X149501Y141940I1380J-1563D01*
G01X165973Y107858D02*
G03X165711Y108703I-353J354D01*
G01X164491Y112710D02*
G03X165711Y108703I1651J-1686D01*
G01X164491Y112710D02*
G03X164642Y113068I-349J358D01*
G01Y123153*
G03X164491Y123510I-500J-0*
G01Y126884D02*
G03Y123510I1651J-1687D01*
G01Y126884D02*
G03X164642Y127241I-349J357D01*
G01Y136148*
G03X164216Y136643I-500J0*
G01X162207Y139002D02*
G03X164216Y136643I2360J-26D01*
G01X162207Y139002D02*
G03X162061Y139361I-500J6D01*
G01X161144Y140278*
X160705Y141339D02*
G03X161144Y140278I1500J-0D01*
G01X160705Y141339D02*
Y144232D01*
G03X160004Y144690I-500J-0*
G01X158442Y144572D02*
G03X160004Y144690I613J2278D01*
G01X158442Y144572D02*
G03X158006Y144484I-130J-483D01*
G01X157087Y144169D02*
G03X158006Y144484I-0J1500D01*
G01X157087Y144169D02*
X153286D01*
G03X152955Y143295I-0J-500*
G01X151782Y139658D02*
G03X152955Y143295I-207J2074D01*
G01X151782Y139658D02*
G03X151478Y139514I50J-497D01*
G01X148497Y136533*
G03X148350Y136179I353J-354*
G01Y112266*
X148350D02*
G03X148463Y111950I500J0D01*
G01X148740Y109751D02*
G03X148463Y111950I-1890J879D01*
G01X148740Y109751D02*
G03X148840Y109187I454J-211D01*
G01X150475Y107552*
G03X150828Y107406I353J354*
G01X165313*
G03X165667Y107552I0J500*
G01X165973Y107858*
X177429Y101100D02*
G03X177796Y101940I0J500D01*
G01X177264Y102878D02*
G03X177796Y101940I2264J665D01*
G01X177264Y102878D02*
G03X176369Y103015I-480J-141D01*
G01X175111Y102077D02*
G03X176369Y103015I-702J2254D01*
G01X175111Y102077D02*
G03X175259Y101100I148J-477D01*
G01X177429*
X192840D02*
G03X193128Y102009I-0J500D01*
G01X192132Y103804D02*
G03X193128Y102009I2356J133D01*
G01X192132Y103804D02*
G03X191368Y104200I-499J-29D01*
G01X182603Y103783D02*
G03X191368Y104200I4011J8028D01*
G01X182603Y103783D02*
G03X181881Y103372I-223J-447D01*
G01X181259Y101940D02*
G03X181881Y103372I-1731J1603D01*
G01X181259Y101940D02*
G03X181626Y101100I367J-340D01*
G01X192840*
X185902Y146345D02*
G03X182602I-1650J1686D01*
G01X185902D02*
G03X185752Y145987I350J-358D01*
G01Y141414*
G03X185902Y141057I500J0*
G01X182602D02*
G03X185902I1650J-1687D01*
G01X182602D02*
G03X182752Y141414I-350J357D01*
G01Y145987*
G03X182602Y146345I-500J0*
G01X179997Y155006D02*
G03X176696I-1651J1687D01*
G01X179997D02*
G03X179846Y154649I349J-357D01*
G01Y144958*
G03X179997Y144600I500J-0*
G01X176696D02*
G03X179997I1650J-1687D01*
G01X176696D02*
G03X176846Y144958I-350J358D01*
G01Y154649*
G03X176696Y155006I-500J-0*
G01X173698Y153038D02*
G03X170397I-1651J1686D01*
G01X173698D02*
G03X173547Y152680I349J-358D01*
G01Y144564*
G03X173698Y144206I500J-0*
G01X170397D02*
G03X173698I1650J-1686D01*
G01X170397D02*
G03X170547Y144564I-350J358D01*
G01Y152680*
G03X170397Y153038I-500J0*
G01X155903Y117126D02*
G03X155903I-2360J0D01*
G01X156100Y130315D02*
G03X156100I-2360J0D01*
G01X192239Y101100D02*
X193139Y102000D01*
X190966Y101100D02*
X192512Y102647D01*
X189693Y101100D02*
X192158Y103565D01*
X188420Y101100D02*
X191594Y104274D01*
X187148Y101100D02*
X189294Y103246D01*
X185875Y101100D02*
X187675Y102900D01*
X184602Y101100D02*
X186343Y102841D01*
X183329Y101100D02*
X185181Y102952D01*
X182056Y101100D02*
X184141Y103185D01*
X181145Y101462D02*
X183197Y103513D01*
X181906Y103495D02*
X182221Y103810D01*
X176965Y101100D02*
X177800Y101935D01*
X175692Y101100D02*
X177315Y102723D01*
X174779Y101460D02*
X175632Y102312D01*
X165480Y107434D02*
X166091Y108045D01*
X164179Y107406D02*
X165520Y108747D01*
X162906Y107406D02*
X164675Y109175D01*
X148350Y119578D02*
X164642Y135870D01*
X148350Y118306D02*
X164642Y134597D01*
X148350Y117033D02*
X164642Y133324D01*
X148350Y115760D02*
X164642Y132051D01*
X153340Y119477D02*
X164642Y130779D01*
X154443Y119307D02*
X164642Y129506D01*
X155208Y118799D02*
X164642Y128233D01*
X149763Y108263D02*
X164642Y123142D01*
X150400Y107627D02*
X164642Y121869D01*
X151451Y107406D02*
X164642Y120596D01*
X152724Y107406D02*
X164642Y119323D01*
X153997Y107406D02*
X164642Y118051D01*
X155269Y107406D02*
X164642Y116778D01*
X156542Y107406D02*
X164642Y115505D01*
X157815Y107406D02*
X164642Y114232D01*
X159088Y107406D02*
X164626Y112944D01*
X155720Y118038D02*
X164161Y126479D01*
X149127Y108900D02*
X164153Y123926D01*
X148350Y120851D02*
X164152Y136653D01*
X161633Y107406D02*
X164088Y109861D01*
X155896Y116942D02*
X163807Y124853D01*
X160361Y107406D02*
X163789Y110834D01*
X156048Y129821D02*
X163247Y137020D01*
X155988Y131034D02*
X162610Y137657D01*
X155532Y131851D02*
X162244Y138563D01*
X154821Y132413D02*
X161915Y139507D01*
X153809Y132674D02*
X161279Y140143D01*
X148350Y128488D02*
X160768Y140906D01*
X148350Y131034D02*
X160705Y143388D01*
X148350Y129761D02*
X160705Y142115D01*
X148350Y132306D02*
X160592Y144548D01*
X148350Y133579D02*
X159272Y144500D01*
X148350Y134852D02*
X157922Y144423D01*
X153634Y141408D02*
X156395Y144169D01*
X153495Y142542D02*
X155122Y144169D01*
X148350Y122124D02*
X154234Y128007D01*
X152965Y143285D02*
X153849Y144169D01*
X148768Y109814D02*
X153728Y114773D01*
X148350Y123397D02*
X153021Y128067D01*
X148861Y111179D02*
X152631Y114950D01*
X148350Y124670D02*
X152204Y128523D01*
X148350Y136125D02*
X151899Y139673D01*
X148420Y112012D02*
X151870Y115462D01*
X148350Y125942D02*
X151642Y129234D01*
X148350Y127215D02*
X151381Y130246D01*
X148350Y113215D02*
X151362Y116226D01*
X148350Y114487D02*
X151192Y117329D01*
X140477Y134616D02*
X150009Y144148D01*
X141354Y134219D02*
X149639Y142504D01*
X140476Y135887D02*
X148813Y144224D01*
X140476Y137160D02*
X148027Y144711D01*
X140476Y138433D02*
X147053Y145010D01*
X140476Y139706D02*
X145707Y144936D01*
X142521Y134114D02*
X145350Y136943D01*
X143318Y133638D02*
X145350Y135670D01*
X143861Y132908D02*
X145350Y134397D01*
X144092Y131866D02*
X145350Y133125D01*
X140476Y126978D02*
X145350Y131852D01*
X140476Y125705D02*
X145350Y130579D01*
X140476Y124432D02*
X145350Y129306D01*
X140476Y123160D02*
X145350Y128034D01*
X140584Y121994D02*
X145350Y126761D01*
X141896Y122034D02*
X145350Y125488D01*
X143009Y121874D02*
X145350Y124215D01*
X143778Y121370D02*
X145350Y122942D01*
X144295Y120614D02*
X145350Y121670D01*
X145050Y120096D02*
X145309Y120355D01*
X140476Y140979D02*
X144337Y144839D01*
X140476Y142251D02*
X143508Y145283D01*
X140476Y143524D02*
X142971Y146019D01*
X140476Y144797D02*
X142645Y146966D01*
X140476Y146070D02*
X142009Y147602D01*
X140476Y128251D02*
X141756Y129530D01*
X140414Y147280D02*
X141372Y148239D01*
X140147Y148286D02*
X140618Y148757D01*
X141976Y114476D02*
X145350Y117851D01*
X142612Y113840D02*
X145350Y116578D01*
X143248Y113204D02*
X145350Y115306D01*
X144009Y112691D02*
X145350Y114033D01*
X141339Y115113D02*
X145286Y119060D01*
X145104Y112513D02*
X145281Y112691D01*
X140611Y115657D02*
X142284Y117330D01*
X140476Y116796D02*
X141197Y117516D01*
X142423Y103469D02*
X146369Y107415D01*
X141150Y103469D02*
X145734Y108053D01*
X143699Y103472D02*
X145407Y105180D01*
X139877Y103469D02*
X145219Y108811D01*
X138932Y103796D02*
X143682Y108546D01*
X138902Y105038D02*
X142677Y108814D01*
X138902Y106311D02*
X142006Y109416D01*
X138902Y107584D02*
X141639Y110322D01*
X138902Y108857D02*
X141127Y111082D01*
X139484Y110712D02*
X140491Y111719D01*
X139215Y111716D02*
X139786Y112287D01*
X127326Y101100D02*
X129159Y102932D01*
X128599Y101100D02*
X129157Y101658D01*
X126054Y101100D02*
X128270Y103316D01*
X125789Y112291D02*
X127634Y114135D01*
X120792Y106021D02*
X127634Y112863D01*
X121495Y105451D02*
X127634Y111590D01*
X121942Y104625D02*
X127634Y110317D01*
X121981Y103391D02*
X127634Y109044D01*
X121050Y101188D02*
X127634Y107771D01*
X126053Y113827D02*
X127589Y115364D01*
X124781Y101100D02*
X127495Y103814D01*
X123508Y101100D02*
X126972Y104564D01*
X122235Y101100D02*
X126778Y105642D01*
X125642Y114689D02*
X126593Y115640D01*
X123706Y110207D02*
X125111Y111613D01*
X119794Y106295D02*
X121289Y107790D01*
X119627Y107401D02*
X120356Y108131D01*
X117144Y101100D02*
X118171Y102127D01*
X115871Y101100D02*
X117601Y102830D01*
X114598Y101100D02*
X117327Y103828D01*
X113326Y101100D02*
X116221Y103995D01*
X112053Y101100D02*
X114082Y103129D01*
X110780Y101100D02*
X112547Y102867D01*
X109507Y101100D02*
X111261Y102854D01*
X108235Y101100D02*
X110130Y102996D01*
X106962Y101100D02*
X109114Y103252D01*
X105689Y101100D02*
X108189Y103600D01*
X105783Y102467D02*
X107344Y104028D01*
X105137Y101821D02*
X105407Y102091D01*
X101100Y188152D02*
X104026Y191078D01*
X101779Y179922D02*
X104019Y182162D01*
X101100Y189425D02*
X103807Y192132D01*
X101100Y180515D02*
X103593Y183008D01*
X101100Y181788D02*
X103246Y183934D01*
X101100Y186879D02*
X103137Y188917D01*
X101100Y183061D02*
X102992Y184953D01*
X101100Y185606D02*
X102869Y187376D01*
X101100Y184334D02*
X102853Y186086D01*
X101100Y190698D02*
X102815Y192412D01*
X101100Y191970D02*
X102116Y192987D01*
X190420Y194741D02*
X193066Y197387D01*
X191250Y194298D02*
X192284Y195332D01*
X189514Y195107D02*
X191807Y197400D01*
X188518Y195384D02*
X190534Y197400D01*
X187414Y195553D02*
X189261Y197400D01*
X186165Y195577D02*
X187988Y197400D01*
X184696Y195381D02*
X186715Y197400D01*
X182762Y194719D02*
X185443Y197400D01*
X181165Y194395D02*
X184170Y197400D01*
X180911Y195414D02*
X182897Y197400D01*
X180395Y196171D02*
X181624Y197400D01*
X179782Y196830D02*
X180352Y197400D01*
X194825Y190236D02*
X197400Y192811D01*
X195173Y189311D02*
X197400Y191538D01*
X195429Y188295D02*
X197400Y190265D01*
X195571Y187164D02*
X197400Y188993D01*
X195558Y185878D02*
X197400Y187720D01*
X195296Y184343D02*
X197400Y186447D01*
X194430Y182204D02*
X197400Y185174D01*
X194597Y181098D02*
X197400Y183901D01*
X195595Y180824D02*
X197400Y182629D01*
X196298Y180254D02*
X197400Y181356D01*
X197179Y179862D02*
X197315Y179998D01*
X196334Y193018D02*
X196742Y193426D01*
X194397Y191081D02*
X195959Y192642D01*
X194358Y173222D02*
X197400Y176265D01*
X195436Y173028D02*
X197400Y174992D01*
X196186Y172505D02*
X197400Y173719D01*
X196858Y171905D02*
X197400Y172446D01*
X194090Y165318D02*
X197400Y168628D01*
X195265Y165220D02*
X197400Y167355D01*
X196065Y164748D02*
X197400Y166082D01*
X196674Y164083D02*
X197400Y164810D01*
X193777Y157368D02*
X197400Y160991D01*
X195083Y157402D02*
X197400Y159718D01*
X195936Y156982D02*
X197400Y158446D01*
X196538Y156311D02*
X197400Y157173D01*
X193365Y149319D02*
X197400Y153355D01*
X194888Y149570D02*
X197400Y152082D01*
X195798Y149207D02*
X197400Y150809D01*
X196438Y148574D02*
X197400Y149536D01*
X194677Y141722D02*
X197400Y144445D01*
X195651Y141423D02*
X197400Y143172D01*
X196337Y140837D02*
X197400Y141899D01*
X194447Y133856D02*
X197400Y136808D01*
X195495Y133630D02*
X197400Y135535D01*
X196228Y133091D02*
X197400Y134263D01*
X194192Y125963D02*
X197400Y129172D01*
X195328Y125827D02*
X197400Y127899D01*
X196110Y125336D02*
X197400Y126626D01*
X196734Y124687D02*
X197400Y125353D01*
X193469Y117603D02*
X197400Y121535D01*
X194019Y116881D02*
X197400Y120262D01*
X194502Y116091D02*
X197400Y118989D01*
X194912Y115228D02*
X197400Y117716D01*
X195241Y114284D02*
X197400Y116444D01*
X195473Y113244D02*
X197400Y115171D01*
X195584Y112082D02*
X197400Y113898D01*
X195525Y110751D02*
X197400Y112625D01*
X195179Y109131D02*
X197400Y111352D01*
X194151Y106831D02*
X197400Y110080D01*
X194860Y106267D02*
X197400Y108807D01*
X195779Y105913D02*
X197400Y107534D01*
X196425Y105286D02*
X197400Y106261D01*
X180571Y128888D02*
X197400Y145718D01*
X196945Y132535D02*
X197398Y132988D01*
X186217Y126898D02*
X197356Y138037D01*
X178859Y158996D02*
X197327Y177464D01*
X187678Y120722D02*
X197261Y130305D01*
X179846Y152347D02*
X197216Y169717D01*
X192854Y118261D02*
X197124Y122532D01*
X185288Y150152D02*
X197064Y161928D01*
X185752Y142979D02*
X196852Y154079D01*
X179541Y129131D02*
X195542Y145133D01*
X185584Y127538D02*
X195152Y137105D01*
X177476Y158886D02*
X195034Y176444D01*
X186467Y120784D02*
X194846Y129164D01*
X179846Y153620D02*
X194747Y168521D01*
X192175Y118855D02*
X194584Y121264D01*
X184254Y150391D02*
X194495Y160632D01*
X185752Y144252D02*
X194268Y152769D01*
X167642Y118505D02*
X194060Y144923D01*
X184684Y127911D02*
X193867Y137093D01*
X173713Y156396D02*
X193800Y176483D01*
X185059Y120649D02*
X193687Y129277D01*
X180245Y155292D02*
X193624Y168670D01*
X191430Y119383D02*
X193518Y121471D01*
X179846Y147256D02*
X193459Y160869D01*
X185752Y145525D02*
X193304Y153077D01*
X186492Y138628D02*
X193158Y145295D01*
X183207Y127706D02*
X193022Y137521D01*
X172949Y156905D02*
X192974Y176930D01*
X183280Y120143D02*
X192894Y129756D01*
X180686Y157005D02*
X192849Y169168D01*
X190617Y119843D02*
X192774Y122000D01*
X179846Y148529D02*
X192733Y161415D01*
X186576Y147622D02*
X192625Y153670D01*
X186540Y139949D02*
X192525Y145934D01*
X181761Y127533D02*
X192435Y138207D01*
X185752Y141707D02*
X192413Y148367D01*
X171847Y157076D02*
X192404Y177633D01*
X186322Y124458D02*
X192354Y130489D01*
X180349Y157941D02*
X192327Y169919D01*
X189729Y120227D02*
X192283Y122782D01*
X179846Y149802D02*
X192260Y162215D01*
X186012Y149603D02*
X192238Y155829D01*
X186483Y148801D02*
X192205Y154523D01*
X186124Y140806D02*
X192162Y146844D01*
X179846Y151075D02*
X192162Y163390D01*
X188755Y120526D02*
X192147Y123919D01*
X181293Y128338D02*
X192136Y139181D01*
X179736Y158600D02*
X192132Y170997D01*
X163692Y150194D02*
X192130Y178632D01*
X186578Y125987D02*
X192129Y131537D01*
X163276Y151050D02*
X191024Y178798D01*
X162648Y151695D02*
X188885Y177932D01*
X162335Y152654D02*
X187351Y177670D01*
X161794Y153386D02*
X186064Y177657D01*
X179045Y117180D02*
X185385Y123520D01*
X167642Y119778D02*
X184994Y137130D01*
X161736Y154602D02*
X184933Y177799D01*
X161736Y155874D02*
X183917Y178055D01*
X167642Y121051D02*
X183673Y137082D01*
X178665Y118074D02*
X183562Y122970D01*
X161736Y157147D02*
X182992Y178403D01*
X167642Y122324D02*
X182816Y137498D01*
X180704Y143022D02*
X182752Y145070D01*
X167642Y128687D02*
X182752Y143798D01*
X167642Y127415D02*
X182752Y142525D01*
X168065Y126565D02*
X182707Y141207D01*
X180430Y144021D02*
X182670Y146261D01*
X168309Y124264D02*
X182218Y138173D01*
X162590Y159273D02*
X182147Y178831D01*
X179890Y144754D02*
X182132Y146996D01*
X168452Y125679D02*
X181904Y139132D01*
X179846Y145983D02*
X181892Y148029D01*
X162410Y160367D02*
X181373Y179330D01*
X161896Y161126D02*
X180666Y179895D01*
X161130Y161633D02*
X180022Y180525D01*
X160024Y161799D02*
X179443Y181218D01*
X151106Y154154D02*
X178930Y181978D01*
X157114Y170344D02*
X178833Y192063D01*
X158443Y170400D02*
X178509Y190466D01*
X151106Y155427D02*
X178487Y182808D01*
X167642Y129960D02*
X178238Y140556D01*
X156666Y162259D02*
X178121Y183715D01*
X159303Y169988D02*
X177847Y188532D01*
X159429Y166295D02*
X177844Y184711D01*
X150339Y164842D02*
X177815Y192317D01*
X160221Y168360D02*
X177676Y185815D01*
X159903Y169315D02*
X177651Y187063D01*
X139317Y158911D02*
X177604Y197198D01*
X167642Y115960D02*
X177351Y125668D01*
X167642Y131233D02*
X177238Y140830D01*
X167642Y117232D02*
X177168Y126758D01*
X149135Y164911D02*
X177058Y192833D01*
X173547Y151139D02*
X176846Y154438D01*
X173547Y149866D02*
X176846Y153166D01*
X173547Y148594D02*
X176846Y151893D01*
X173547Y147321D02*
X176846Y150620D01*
X173547Y146048D02*
X176846Y149347D01*
X173547Y144775D02*
X176846Y148074D01*
X173954Y143910D02*
X176846Y146802D01*
X174351Y143033D02*
X176846Y145529D01*
X141438Y158486D02*
X176553Y193602D01*
X167642Y132506D02*
X176536Y141400D01*
X173185Y194052D02*
X176533Y197400D01*
X173547Y152412D02*
X176439Y155304D01*
X140327Y158648D02*
X176391Y194712D01*
X174224Y155635D02*
X176153Y157563D01*
X167642Y133779D02*
X176089Y142226D01*
X174241Y141651D02*
X176051Y143461D01*
X174400Y154537D02*
X176043Y156180D01*
X173102Y195242D02*
X175260Y197400D01*
X172636Y196049D02*
X173988Y197400D01*
X173147Y101100D02*
X173954Y101907D01*
X171874Y101100D02*
X173125Y102351D01*
X167642Y135051D02*
X172916Y140325D01*
X167642Y114687D02*
X172909Y119954D01*
X167642Y113414D02*
X172909Y118682D01*
X167991Y112490D02*
X172909Y117409D01*
X168418Y111645D02*
X172909Y116136D01*
X168718Y110672D02*
X172909Y114863D01*
X169650Y110331D02*
X172909Y113590D01*
X170341Y109749D02*
X172909Y112318D01*
X170775Y108910D02*
X172909Y111045D01*
X170779Y107642D02*
X172909Y109772D01*
X165510Y101100D02*
X172909Y108499D01*
X166783Y101100D02*
X172909Y107227D01*
X171968Y196653D02*
X172715Y197400D01*
X170601Y101100D02*
X172477Y102976D01*
X168056Y101100D02*
X172260Y105304D01*
X169328Y101100D02*
X172096Y103867D01*
X167642Y136324D02*
X171534Y140216D01*
X139295Y160162D02*
X171302Y192169D01*
X167630Y137586D02*
X170657Y140613D01*
X163705Y145115D02*
X170547Y151958D01*
X163705Y143842D02*
X170547Y150685D01*
X163705Y142570D02*
X170547Y149412D01*
X164036Y141628D02*
X170547Y148139D01*
X164981Y141300D02*
X170547Y146866D01*
X165886Y140933D02*
X170547Y145594D01*
X163705Y146388D02*
X170376Y153059D01*
X166523Y140297D02*
X170152Y143925D01*
X140132Y162272D02*
X170112Y192252D01*
X167218Y138446D02*
X170044Y141272D01*
X163705Y147661D02*
X169867Y153822D01*
X137726Y164957D02*
X169809Y197040D01*
X166890Y139391D02*
X169708Y142209D01*
X163705Y148933D02*
X169696Y154925D01*
X140008Y163420D02*
X169306Y192718D01*
X164237Y101100D02*
X169130Y105992D01*
X165227Y193731D02*
X168896Y197400D01*
X139522Y164207D02*
X168753Y193438D01*
X138783Y164741D02*
X168506Y194464D01*
X165282Y195058D02*
X167624Y197400D01*
X164869Y195918D02*
X166351Y197400D01*
X162965Y101100D02*
X166276Y104412D01*
X164201Y196523D02*
X165078Y197400D01*
X161692Y101100D02*
X164997Y104405D01*
X132923Y161426D02*
X163750Y192253D01*
X160419Y101100D02*
X163724Y104405D01*
X159146Y101100D02*
X162452Y104405D01*
X132115Y161891D02*
X162422Y192198D01*
X129493Y164361D02*
X161948Y196816D01*
X131157Y162207D02*
X161562Y192611D01*
X157153Y193294D02*
X161260Y197400D01*
X157873Y101100D02*
X161179Y104405D01*
X130751Y163073D02*
X160962Y193284D01*
X130129Y163724D02*
X160645Y194240D01*
X157448Y194861D02*
X159987Y197400D01*
X156601Y101100D02*
X159906Y104405D01*
X154155Y152112D02*
X158736Y156693D01*
X154987Y151670D02*
X158736Y155420D01*
X155621Y151032D02*
X158736Y154147D01*
X157093Y195779D02*
X158714Y197400D01*
X155328Y101100D02*
X158633Y104405D01*
X153050Y152280D02*
X158559Y157789D01*
X156324Y147916D02*
X158445Y150038D01*
X151435Y151937D02*
X158052Y158555D01*
X156215Y149081D02*
X157989Y150854D01*
X156057Y150195D02*
X157928Y152066D01*
X151106Y152881D02*
X157886Y159661D01*
X156466Y196425D02*
X157441Y197400D01*
X154055Y101100D02*
X157360Y104405D01*
X128857Y164997D02*
X156313Y192453D01*
X152782Y101100D02*
X156088Y104405D01*
X154273Y164958D02*
X155961Y166646D01*
X151152Y164382D02*
X155640Y168870D01*
X151787Y163745D02*
X155584Y167541D01*
X151509Y101100D02*
X154815Y104405D01*
X131100Y168513D02*
X154745Y192158D01*
X151106Y156700D02*
X154670Y160263D01*
X136539Y175225D02*
X153827Y192513D01*
X137280Y181057D02*
X153621Y197398D01*
X150237Y101100D02*
X153542Y104405D01*
X151106Y157972D02*
X153517Y160383D01*
X136539Y176498D02*
X153181Y193140D01*
X137355Y179859D02*
X152978Y195482D01*
X136539Y177771D02*
X152802Y194034D01*
X151106Y159245D02*
X152728Y160867D01*
X149599Y194648D02*
X152350Y197400D01*
X148964Y101100D02*
X152269Y104405D01*
X151106Y160518D02*
X152065Y161477D01*
X149309Y195631D02*
X151077Y197400D01*
X147707Y101116D02*
X150997Y104405D01*
X148728Y196323D02*
X149805Y197400D01*
X149442Y104123D02*
X149678Y104360D01*
X147359Y102040D02*
X148049Y102731D01*
X147020Y160250D02*
X147823Y161053D01*
X146289Y160792D02*
X147363Y161866D01*
X145245Y161021D02*
X147294Y163070D01*
X136817Y181867D02*
X147084Y192134D01*
X136100Y182423D02*
X146101Y192424D01*
X126090Y177503D02*
X145933Y197346D01*
X135079Y182674D02*
X145409Y193004D01*
X127587Y176455D02*
X144974Y193843D01*
X126970Y177111D02*
X144967Y195108D01*
X141729Y194415D02*
X144713Y197400D01*
X141514Y195474D02*
X143441Y197400D01*
X142226Y158002D02*
X142916Y158692D01*
X140981Y196213D02*
X142168Y197400D01*
X140407Y196912D02*
X140895Y197400D01*
X124693Y177379D02*
X139443Y192129D01*
X116629Y170588D02*
X138385Y192344D01*
X105608Y164659D02*
X138195Y197245D01*
X115120Y170352D02*
X137645Y192878D01*
X136658Y144797D02*
X137407Y145546D01*
X106288Y162793D02*
X137159Y193664D01*
X133832Y194156D02*
X137077Y197400D01*
X106117Y163895D02*
X137032Y194810D01*
X135757Y145169D02*
X136591Y146002D01*
X133597Y157010D02*
X136295Y159708D01*
X132904Y155044D02*
X136295Y158435D01*
X133511Y154378D02*
X136295Y157162D01*
X133839Y153433D02*
X136295Y155889D01*
X133254Y151576D02*
X136295Y154617D01*
X132996Y150045D02*
X136295Y153344D01*
X132996Y148772D02*
X136295Y152071D01*
X132996Y147499D02*
X136295Y150798D01*
X134171Y158856D02*
X136184Y160869D01*
X133666Y144351D02*
X135918Y146602D01*
X133710Y195306D02*
X135804Y197400D01*
X133985Y159943D02*
X135652Y161610D01*
X132996Y146226D02*
X135561Y148791D01*
X132996Y144953D02*
X135505Y147462D01*
X133547Y160778D02*
X135436Y162667D01*
X133225Y196094D02*
X134531Y197400D01*
X127136Y170913D02*
X133539Y177316D01*
X128322Y170826D02*
X133539Y176044D01*
X127091Y172140D02*
X133472Y178522D01*
X132570Y196712D02*
X133258Y197400D01*
X127531Y173853D02*
X132931Y179254D01*
X132410Y155822D02*
X132754Y156167D01*
X127928Y175523D02*
X132680Y180275D01*
X104846Y165170D02*
X131829Y192152D01*
X103748Y165344D02*
X130678Y192275D01*
X120747Y187435D02*
X130416Y197103D01*
X119937Y182806D02*
X129890Y192759D01*
X125896Y193856D02*
X129440Y197400D01*
X120584Y184726D02*
X129355Y193496D01*
X120775Y186190D02*
X129137Y194552D01*
X128469Y165882D02*
X128678Y166092D01*
X125894Y195127D02*
X128167Y197400D01*
X120942Y141809D02*
X127634Y148501D01*
X121579Y141173D02*
X127634Y147228D01*
X122215Y140536D02*
X127634Y145955D01*
X122851Y139900D02*
X127634Y144682D01*
X123488Y139263D02*
X127634Y143410D01*
X124099Y138602D02*
X127634Y142137D01*
X124335Y137565D02*
X127634Y140864D01*
X124335Y136292D02*
X127634Y139591D01*
X124335Y135019D02*
X127634Y138318D01*
X124335Y133746D02*
X127634Y137046D01*
X124335Y132474D02*
X127634Y135773D01*
X124335Y131201D02*
X127634Y134500D01*
X124335Y129928D02*
X127634Y133227D01*
X124335Y128655D02*
X127634Y131954D01*
X124335Y127382D02*
X127634Y130682D01*
X124335Y126110D02*
X127634Y129409D01*
X124335Y124837D02*
X127634Y128136D01*
X124674Y123904D02*
X127634Y126863D01*
X125380Y123337D02*
X127634Y125590D01*
X126327Y123011D02*
X127634Y124318D01*
X127064Y122475D02*
X127634Y123045D01*
X120306Y142445D02*
X127481Y149621D01*
X126523Y155027D02*
X126904Y155408D01*
X125461Y195967D02*
X126894Y197400D01*
X105214Y141354D02*
X126735Y162876D01*
X119669Y143082D02*
X126695Y150108D01*
X117064Y146841D02*
X126354Y156131D01*
X104290Y141703D02*
X126099Y163512D01*
X119033Y143718D02*
X125976Y150661D01*
X116157Y147206D02*
X125677Y156726D01*
X124787Y196566D02*
X125622Y197400D01*
X102684Y141370D02*
X125463Y164148D01*
X118397Y144355D02*
X125323Y151281D01*
X114647Y146969D02*
X125179Y157501D01*
X105864Y140732D02*
X125067Y159934D01*
X106249Y139844D02*
X124904Y158499D01*
X117702Y146205D02*
X124895Y153398D01*
X118070Y145301D02*
X124892Y152123D01*
X101100Y141059D02*
X124826Y164785D01*
X120577Y188537D02*
X124255Y192215D01*
X101100Y142332D02*
X124246Y165477D01*
X121588Y170456D02*
X124091Y172959D01*
X122459Y170054D02*
X124091Y171686D01*
X123138Y169460D02*
X124091Y170413D01*
X120447Y170588D02*
X123676Y173817D01*
X117902Y170588D02*
X123408Y176095D01*
X119174Y170588D02*
X123284Y174698D01*
X120298Y189531D02*
X122983Y192216D01*
X118392Y192716D02*
X122585Y196909D01*
X119930Y190436D02*
X122143Y192649D01*
X117747Y193344D02*
X121803Y197400D01*
X101100Y143604D02*
X121730Y164235D01*
X119486Y191265D02*
X121561Y193339D01*
X118972Y192023D02*
X121268Y194319D01*
X117039Y193908D02*
X120530Y197400D01*
X101100Y144877D02*
X120280Y164057D01*
X116263Y194406D02*
X119258Y197400D01*
X101100Y146150D02*
X119008Y164057D01*
X115417Y194832D02*
X117985Y197400D01*
X112094Y158416D02*
X117735Y164057D01*
X114491Y195179D02*
X116712Y197400D01*
X112032Y159627D02*
X116462Y164057D01*
X101343Y164212D02*
X115619Y178488D01*
X113472Y195433D02*
X115439Y197400D01*
X111663Y160531D02*
X115344Y164213D01*
X111096Y161237D02*
X114490Y164631D01*
X105065Y133569D02*
X114424Y142927D01*
X106142Y124463D02*
X114381Y132703D01*
X101400Y124812D02*
X114333Y137745D01*
X112339Y195573D02*
X114166Y197400D01*
X113802Y120668D02*
X114033Y120899D01*
X112610Y120749D02*
X113855Y121994D01*
X101100Y114330D02*
X113854Y127084D01*
X107959Y119916D02*
X113854Y125812D01*
X109893Y120578D02*
X113854Y124539D01*
X111362Y120774D02*
X113854Y123266D01*
X110349Y161763D02*
X113825Y165239D01*
X101100Y115603D02*
X113799Y128302D01*
X104075Y133852D02*
X113789Y143566D01*
X105651Y125245D02*
X113732Y133326D01*
X106248Y170390D02*
X113699Y177841D01*
X106096Y138418D02*
X113661Y145983D01*
X106222Y130908D02*
X113647Y138332D01*
X101595Y132645D02*
X113424Y144473D01*
X109393Y162080D02*
X113341Y166028D01*
X106891Y162124D02*
X113309Y168541D01*
X101100Y116876D02*
X113258Y129034D01*
X104907Y125774D02*
X113203Y134070D01*
X106202Y132160D02*
X113153Y139111D01*
X108164Y162124D02*
X113085Y167044D01*
X105762Y132993D02*
X113011Y140242D01*
X103840Y125980D02*
X112996Y135136D01*
X106278Y123327D02*
X112996Y130044D01*
X111049Y195556D02*
X112894Y197400D01*
X106181Y171596D02*
X112236Y177650D01*
X109509Y195288D02*
X111621Y197400D01*
X105722Y172410D02*
X110990Y177678D01*
X107347Y194399D02*
X110348Y197400D01*
X105009Y172969D02*
X109888Y177849D01*
X101100Y147423D02*
X109300Y155623D01*
X106293Y194618D02*
X109075Y197400D01*
X103992Y173225D02*
X108894Y178127D01*
X101100Y148695D02*
X107997Y155593D01*
X101516Y172022D02*
X107989Y178495D01*
X106013Y195610D02*
X107802Y197400D01*
X106155Y177933D02*
X107161Y178939D01*
X106303Y155171D02*
X106718Y155587D01*
X105438Y196309D02*
X106530Y197400D01*
X101100Y133422D02*
X104889Y137211D01*
X101100Y172878D02*
X104744Y176523D01*
X101100Y125785D02*
X104526Y129211D01*
X101100Y165242D02*
X104413Y168555D01*
X101100Y118149D02*
X104232Y121281D01*
X103093Y106141D02*
X104127Y107175D01*
X101100Y149968D02*
X103890Y152759D01*
X101100Y113057D02*
X103706Y115663D01*
X101121Y105442D02*
X103684Y108005D01*
X101100Y134695D02*
X103463Y137058D01*
X101100Y174151D02*
X103393Y176444D01*
X101100Y106693D02*
X103318Y108912D01*
X101100Y127058D02*
X103273Y129231D01*
X101100Y166515D02*
X103207Y168622D01*
X101100Y119421D02*
X103096Y121417D01*
X101100Y111785D02*
X103044Y113729D01*
X101100Y107966D02*
X103041Y109907D01*
X101100Y109239D02*
X102873Y111012D01*
X101100Y151241D02*
X102871Y153013D01*
X101100Y110512D02*
X102848Y112260D01*
X101100Y135968D02*
X102575Y137443D01*
X101100Y175424D02*
X102525Y176849D01*
X101100Y128331D02*
X102441Y129671D01*
X101100Y167787D02*
X102394Y169081D01*
X101100Y120694D02*
X102314Y121909D01*
X101100Y152514D02*
X102156Y153570D01*
X101100Y137240D02*
X101944Y138084D01*
X101100Y176697D02*
X101897Y177494D01*
X101100Y129604D02*
X101802Y130305D01*
X101100Y169060D02*
X101738Y169698D01*
X101100Y121967D02*
X101607Y122474D01*
G54D24*
X131496Y101969D02*
Y153150D01*
X129134Y105512D02*
Y150394D01*
X127165Y151575*
Y152756*
X138976Y114173D02*
Y146850D01*
X137795Y148031*
X126772Y117717D02*
X124803D01*
X120472Y122047*
Y134843*
X115354Y139961*
X133858Y122047D02*
Y124016D01*
X135433Y125197*
Y143110*
X134252Y111417D02*
X137008Y114173D01*
X138976*
X124016Y113386D02*
Y116142D01*
X118898Y121654*
Y131496*
X115354Y135039*
X125197Y121260D02*
X122835Y123622D01*
Y137795*
X115748Y144882*
X121654Y109843D02*
Y115354D01*
X115354Y122047*
Y130118*
X150000Y105906D02*
X166142D01*
X168504Y108268*
X150000Y105906D02*
X146850Y109055D01*
Y110630*
Y137008*
X151575Y141732*
X174409Y104331D02*
Y115354D01*
Y120472*
X179528Y125591*
Y126772*
Y103543D02*
Y103937D01*
X177165Y106299*
Y119291*
X184252Y125591*
X145276Y101969D02*
X137402D01*
Y110630*
X164567Y138976D02*
X162205Y141339D01*
Y150000*
X160630Y151575*
X160236*
X184252Y139370D02*
Y148031D01*
X143701Y110630D02*
X140157Y114173D01*
X138976*
X166142Y125197D02*
Y137402D01*
X164567Y138976*
X166142Y111024D02*
Y125197D01*
X137795Y148031D02*
Y162598D01*
X129528Y158858D02*
Y162205D01*
X125591Y166142*
Y175197*
X128740Y168504D02*
X135039Y174803D01*
Y180315*
X144882Y146850D02*
X140551Y151181D01*
Y156299*
X148425Y151575D02*
X149606Y152756D01*
Y162598*
X154331D02*
X157874Y166142D01*
Y168110*
X157087Y145669D02*
X149213D01*
X148031Y146850*
X157087Y145669D02*
X158268Y146850D01*
X159055*
X145276Y151575D02*
Y158661D01*
X172047Y142520D02*
Y154724D01*
X178346Y142913D02*
Y156693D01*
X160236Y151575D02*
Y159449D01*
G54D49*
X195588Y186614D02*
X194488D01*
X186614Y195588D02*
Y194488D01*
X177640Y186614D02*
X178740D01*
X186614Y177640D02*
Y178740D01*
X195588Y111811D02*
X194488D01*
X186614Y120785D02*
Y119685D01*
Y102837D02*
Y103937D01*
X111811Y120785D02*
Y119685D01*
X102837Y111811D02*
X103937D01*
X111811Y102837D02*
Y103937D01*
X120785Y186614D02*
X119685D01*
X111811Y195588D02*
Y194488D01*
Y177640D02*
Y178740D01*
X102837Y186614D02*
X103937D01*
X144092Y131890D02*
X142992D01*
X141732Y134250D02*
Y133150D01*
Y129530D02*
Y130630D01*
X122045Y103937D02*
X120945D01*
X119685Y106297D02*
Y105197D01*
X117325Y103937D02*
X118425D01*
X106297D02*
X105197D01*
X103937Y106297D02*
Y105197D01*
X106297Y123622D02*
X105197D01*
X103937Y125982D02*
Y124882D01*
Y121262D02*
Y122362D01*
X106297Y131496D02*
X105197D01*
X103937Y133856D02*
Y132756D01*
Y129136D02*
Y130236D01*
X106297Y139370D02*
X105197D01*
X103937Y141730D02*
Y140630D01*
Y137010D02*
Y138110D01*
X106297Y155118D02*
X105197D01*
X103937Y152758D02*
Y153858D01*
X106297Y162992D02*
X105197D01*
X103937Y165352D02*
Y164252D01*
X106297Y170866D02*
X105197D01*
X103937Y173226D02*
Y172126D01*
Y168506D02*
Y169606D01*
X106297Y178740D02*
X105197D01*
X103937Y176380D02*
Y177480D01*
Y181100D02*
Y180000D01*
X106297Y194488D02*
X105197D01*
X103937Y192128D02*
Y193228D01*
X125982Y194488D02*
X124882D01*
X121262D02*
X122362D01*
X123622Y192128D02*
Y193228D01*
X133856Y194488D02*
X132756D01*
X129136D02*
X130236D01*
X131496Y192128D02*
Y193228D01*
X141730Y194488D02*
X140630D01*
X137010D02*
X138110D01*
X139370Y192128D02*
Y193228D01*
X149604Y194488D02*
X148504D01*
X144884D02*
X145984D01*
X147244Y192128D02*
Y193228D01*
X157478Y194488D02*
X156378D01*
X152758D02*
X153858D01*
X155118Y192128D02*
Y193228D01*
X165352Y194488D02*
X164252D01*
X160632D02*
X161732D01*
X162992Y192128D02*
Y193228D01*
X173226Y194488D02*
X172126D01*
X168506D02*
X169606D01*
X170866Y192128D02*
Y193228D01*
X181100Y194488D02*
X180000D01*
X176380D02*
X177480D01*
X178740Y192128D02*
Y193228D01*
X192128Y194488D02*
X193228D01*
X194488Y192128D02*
Y193228D01*
Y106297D02*
Y105197D01*
X192128Y103937D02*
X193228D01*
X194488Y125982D02*
Y124882D01*
X192128Y123622D02*
X193228D01*
X194488Y121262D02*
Y122362D01*
Y133856D02*
Y132756D01*
X192128Y131496D02*
X193228D01*
X194488Y129136D02*
Y130236D01*
Y141730D02*
Y140630D01*
X192128Y139370D02*
X193228D01*
X194488Y137010D02*
Y138110D01*
Y149604D02*
Y148504D01*
X192128Y147244D02*
X193228D01*
X194488Y144884D02*
Y145984D01*
Y157478D02*
Y156378D01*
X192128Y155118D02*
X193228D01*
X194488Y152758D02*
Y153858D01*
Y165352D02*
Y164252D01*
X192128Y162992D02*
X193228D01*
X194488Y160632D02*
Y161732D01*
Y173226D02*
Y172126D01*
X192128Y170866D02*
X193228D01*
X194488Y168506D02*
Y169606D01*
Y181100D02*
Y180000D01*
X192128Y178740D02*
X193228D01*
X194488Y176380D02*
Y177480D01*
X144486Y119685D02*
X143386D01*
X142126Y117325D02*
Y118425D01*
Y122045D02*
Y120945D01*
X145357Y104724D02*
X146457D01*
X155903Y117126D02*
X154803D01*
X153543Y119486D02*
Y118386D01*
X151183Y117126D02*
X152283D01*
X153543Y114766D02*
Y115866D01*
X156100Y130315D02*
X155000D01*
X153740Y132675D02*
Y131575D01*
X151380Y130315D02*
X152480D01*
X153740Y127955D02*
Y129055D01*
X147441Y102640D02*
Y103740D01*
G54D52*
X131496Y101969D03*
X129134Y105512D03*
X119685Y103937D03*
X103937D03*
Y123622D03*
Y131496D03*
Y139370D03*
X115354Y135039D03*
Y139961D03*
Y130118D03*
X194488Y103937D03*
Y123622D03*
Y131496D03*
Y139370D03*
X142126Y119685D03*
X153740Y130315D03*
X141732Y131890D03*
X153543Y117126D03*
X168504Y108268D03*
X184252Y125591D03*
X179528Y126772D03*
X174409Y104331D03*
X179528Y103543D03*
X164567Y138976D03*
X184252Y139370D03*
X166142Y125197D03*
Y111024D03*
X127165Y152756D03*
X131496Y153150D03*
X103937Y155118D03*
Y162992D03*
Y170866D03*
Y178740D03*
Y194488D03*
X123622D03*
X131496D03*
X139370D03*
X137795Y162598D03*
X125591Y175197D03*
X137795Y148031D03*
X115748Y144882D03*
X128740Y168504D03*
X135039Y180315D03*
X147244Y194488D03*
X155118D03*
X162992D03*
X170866D03*
X178740D03*
X194488D03*
Y147244D03*
Y155118D03*
Y162992D03*
Y170866D03*
X140551Y156299D03*
X194488Y178740D03*
X154331Y162598D03*
X159055Y146850D03*
X157874Y168110D03*
X149606Y162598D03*
X172047Y154724D03*
Y142520D03*
X178346Y156693D03*
Y142913D03*
X160236Y151575D03*
Y159449D03*
X184252Y148031D03*
X145276Y158661D03*
G54D58*
X111811Y186614D03*
X186614D03*
Y111811D03*
X111811D03*
G54D60*
X126772Y117717D03*
X133858Y122047D03*
X137402Y110630D03*
X134252Y111417D03*
X124016Y113386D03*
X125197Y121260D03*
X121654Y109843D03*
X147441Y104724D03*
X146850Y110630D03*
X145276Y101969D03*
X143701Y110630D03*
X135433Y143110D03*
X144882Y146850D03*
X148425Y151575D03*
X145276D03*
X148031Y146850D03*
X151575Y141732D03*
G54D75*
X130906Y158858D02*
X128150D01*
X108858D02*
X106102D01*
X120669Y167323D02*
X116339D01*
G74*
X0Y0D02*
M02*
