*
*
G04 PADS Layout (Build Number 2008.43.1) generated Gerber (RS-274-X) file*
G04 PC Version=2.1*
*
%IN "digital MEMs USB v103.p"*%
*
%MOIN*%
*
%FSLAX35Y35*%
*
*
*
*
G04 PC Standard Apertures*
*
*
G04 Thermal Relief Aperture macro.*
%AMTER*
1,1,$1,0,0*
1,0,$1-$2,0,0*
21,0,$3,$4,0,0,45*
21,0,$3,$4,0,0,135*
%
*
*
G04 Annular Aperture macro.*
%AMANN*
1,1,$1,0,0*
1,0,$2,0,0*
%
*
*
G04 Odd Aperture macro.*
%AMODD*
1,1,$1,0,0*
1,0,$1-0.005,0,0*
%
*
*
G04 PC Custom Aperture Macros*
*
*
*
*
*
*
G04 PC Aperture Table*
*
%ADD010C,0.001*%
%ADD012C,0.005*%
%ADD022C,0.01*%
%ADD072C,0.00394*%
%ADD084C,0.00197*%
*
*
*
*
G04 PC Circuitry*
G04 Layer Name digital MEMs USB v103.p - circuitry*
%LPD*%
*
*
G04 PC Custom Flashes*
G04 Layer Name digital MEMs USB v103.p - flashes*
%LPD*%
*
*
G04 PC Circuitry*
G04 Layer Name digital MEMs USB v103.p - circuitry*
%LPD*%
*
G54D10*
G54D12*
G01X107829Y169423D02*
Y166923D01*
X107716Y166454*
X107602Y166298*
X107375Y166142*
X107147*
X106920Y166298*
X106807Y166454*
X106693Y166923*
Y167235*
X108852Y168798D02*
X109079Y168954D01*
X109420Y169423*
Y166142*
X149606Y194226D02*
Y190945D01*
Y194226D02*
X150629D01*
X150970Y194070*
X151084Y193914*
X151197Y193601*
Y193289*
X151084Y192976*
X150970Y192820*
X150629Y192664*
X149606*
X150402D02*
X151197Y190945D01*
X152220Y194226D02*
Y190945D01*
Y194226D02*
X153697D01*
X152220Y192664D02*
X153129D01*
X152220Y190945D02*
X153697D01*
X156424Y193445D02*
X156311Y193757D01*
X156084Y194070*
X155856Y194226*
X155402*
X155174Y194070*
X154947Y193757*
X154834Y193445*
X154720Y192976*
Y192195*
X154834Y191726*
X154947Y191414*
X155174Y191101*
X155402Y190945*
X155856*
X156084Y191101*
X156311Y191414*
X156424Y191726*
Y192195*
X155856D02*
X156424D01*
X157447Y193601D02*
X157674Y193757D01*
X158015Y194226*
Y190945*
X152756Y106431D02*
Y104087D01*
X152870Y103618*
X153097Y103306*
X153438Y103150*
X153665*
X154006Y103306*
X154233Y103618*
X154347Y104087*
Y106431*
X155597D02*
X156847D01*
X156165Y105181*
X156506*
X156733Y105025*
X156847Y104868*
X156960Y104400*
Y104087*
X156847Y103618*
X156620Y103306*
X156279Y103150*
X155938*
X155597Y103306*
X155483Y103462*
X155370Y103775*
X120821Y120210D02*
Y117710D01*
X120708Y117242*
X120594Y117085*
X120367Y116929*
X120140*
X119912Y117085*
X119799Y117242*
X119685Y117710*
Y118023*
X121958Y119429D02*
Y119585D01*
X122071Y119898*
X122185Y120054*
X122412Y120210*
X122867*
X123094Y120054*
X123208Y119898*
X123321Y119585*
Y119273*
X123208Y118960*
X122980Y118492*
X121844Y116929*
X123435*
G54D22*
X169642Y148050D02*
Y153850D01*
X162642*
Y148050*
X169642Y145650D02*
Y139850D01*
X162642*
Y145650*
X168091Y163343D02*
X162291D01*
Y156343*
X168091*
X170491Y163343D02*
X176291D01*
Y156343*
X170491*
X147594Y180334D02*
Y186134D01*
X140594*
Y180334*
X147594Y177934D02*
Y172134D01*
X140594*
Y177934*
X140827Y181703D02*
Y189753D01*
X130827*
Y181703*
X140827Y174203D02*
Y166153D01*
X130827*
Y174203*
X130465Y146388D02*
Y141838D01*
X136465*
Y146388*
X130465Y148888D02*
Y153438D01*
X136465*
Y148888*
X182039Y152687D02*
Y148137D01*
X188039*
Y152687*
X182039Y155187D02*
Y159737D01*
X188039*
Y155187*
X182039Y164498D02*
Y159948D01*
X188039*
Y164498*
X182039Y166998D02*
Y171548D01*
X188039*
Y166998*
X129378Y183533D02*
Y188083D01*
X123378*
Y183533*
X129378Y181033D02*
Y176483D01*
X123378*
Y181033*
X172484Y172816D02*
Y167016D01*
X179484*
Y172816*
X172484Y175216D02*
Y181016D01*
X179484*
Y175216*
X162323Y174990D02*
Y166940D01*
X172323*
Y174990*
X162323Y182490D02*
Y190540D01*
X172323*
Y182490*
X160827Y184154D02*
Y180106D01*
X160015*
Y178949*
X160827*
Y174902*
X147835*
Y184154*
X160827*
X181252Y132608D02*
Y128058D01*
X187252*
Y132608*
X181252Y135108D02*
Y139658D01*
X187252*
Y135108*
X175346Y132608D02*
Y128058D01*
X181346*
Y132608*
X175346Y135108D02*
Y139658D01*
X181346*
Y135108*
X175047D02*
Y139658D01*
X169047*
Y135108*
X175047Y132608D02*
Y128058D01*
X169047*
Y132608*
X129620Y141339D02*
G75*
G03X129620I-880J0D01*
G01X131102Y107874D02*
X162598D01*
Y139370*
X131102*
Y136614*
X131890Y136220*
X131102Y135827*
Y107874*
X107677Y148976D02*
X123031D01*
Y121102*
X107677*
Y148976*
X165004Y116910D02*
Y111110D01*
X172004*
Y116910*
X165004Y119310D02*
Y125110D01*
X172004*
Y119310*
X172091Y116910D02*
Y111110D01*
X179091*
Y116910*
X172091Y119310D02*
Y125110D01*
X179091*
Y119310*
G54D72*
X157213Y143213D02*
Y155213D01*
X141213*
Y143213*
X157213*
X172835Y148264D02*
X173081Y148354D01*
X173327Y148533*
X173450Y148712*
Y149069*
X173327Y149248*
X173081Y149427*
X172835Y149517*
X172466Y149606*
X171850*
X171481Y149517*
X171235Y149427*
X170989Y149248*
X170866Y149069*
Y148712*
X170989Y148533*
X171235Y148354*
X171481Y148264*
X172958Y147459D02*
X173081Y147280D01*
X173450Y147011*
X170866*
X158822Y163780D02*
X158733Y164026D01*
X158554Y164272*
X158375Y164395*
X158017*
X157838Y164272*
X157659Y164026*
X157570Y163780*
X157480Y163410*
Y162795*
X157570Y162426*
X157659Y162180*
X157838Y161934*
X158017Y161811*
X158375*
X158554Y161934*
X158733Y162180*
X158822Y162426*
X160523Y164395D02*
X159628Y162672D01*
X160970*
X160523Y164395D02*
Y161811D01*
X144649Y188976D02*
X144560Y189222D01*
X144381Y189469*
X144202Y189592*
X143844*
X143665Y189469*
X143486Y189222*
X143397Y188976*
X143307Y188607*
Y187992*
X143397Y187623*
X143486Y187377*
X143665Y187131*
X143844Y187008*
X144202*
X144381Y187131*
X144560Y187377*
X144649Y187623*
X146618Y189592D02*
X145723D01*
X145634Y188484*
X145634D02*
X145723Y188607D01*
X145991Y188730*
X146260*
X146528Y188607*
X146707Y188361*
X146797Y187992*
X146707Y187746*
X146618Y187377*
X146439Y187131*
X146170Y187008*
X145902*
X145634Y187131*
X145634D02*
X145544Y187254D01*
X145455Y187500*
X134019Y193307D02*
X133930Y193553D01*
X133751Y193799*
X133572Y193922*
X133214*
X133035Y193799*
X132856Y193553*
X132767Y193307*
X132677Y192938*
Y192323*
X132767Y191954*
X132856Y191708*
X133035Y191462*
X133214Y191339*
X133572*
X133751Y191462*
X133930Y191708*
X134019Y191954*
X134825Y193430D02*
X135004Y193553D01*
X135272Y193922*
Y191339*
X136614Y193922D02*
X136346Y193799D01*
X136167Y193430*
X136077Y192815*
Y192446*
X136167Y191831*
X136346Y191462*
X136614Y191339*
X136793*
X137062Y191462*
X137241Y191831*
X137330Y192446*
Y192815*
X137241Y193430*
X137062Y193799*
X136793Y193922*
X136614*
X138672D02*
X138404Y193799D01*
X138225Y193430*
X138135Y192815*
Y192446*
X138225Y191831*
X138404Y191462*
X138672Y191339*
X138851*
X139120Y191462*
X139298Y191831*
X139388Y192446*
Y192815*
X139298Y193430*
X139120Y193799*
X138851Y193922*
X138672*
X134252Y157308D02*
Y154724D01*
Y157308D02*
X135057D01*
X135326Y157185*
X135415Y157062*
X135505Y156816*
Y156570*
X135415Y156324*
X135326Y156201*
X135057Y156078*
X134252*
X134878D02*
X135505Y154724D01*
X136310Y156816D02*
X136489Y156939D01*
X136757Y157308*
Y154724*
X189542Y152362D02*
X192126D01*
X189542D02*
Y153168D01*
X189665Y153436*
X189788Y153525*
X190034Y153615*
X190281*
X190527Y153525*
X190650Y153436*
X190773Y153168*
Y152362*
Y152989D02*
X192126Y153615D01*
X189542Y155583D02*
Y154689D01*
X190650Y154599*
X190527Y154689*
X190404Y154957*
Y155225*
X190527Y155494*
X190773Y155673*
X191142Y155762*
X191388Y155673*
X191757Y155583*
X192003Y155404*
X192126Y155136*
Y154868*
X192003Y154599*
X191880Y154510*
X191634Y154420*
X189542Y164173D02*
X192126D01*
X189542D02*
Y164979D01*
X189665Y165247*
X189788Y165336*
X190034Y165426*
X190281*
X190527Y165336*
X190650Y165247*
X190773Y164979*
Y164173*
Y164800D02*
X192126Y165426D01*
X189911Y167305D02*
X189665Y167215D01*
X189542Y166947*
Y166768*
X189665Y166500*
X190034Y166321*
X190650Y166231*
X191265*
X191757Y166321*
X192003Y166500*
X192126Y166768*
Y166858*
X192003Y167126*
X191757Y167305*
X191388Y167394*
X191265*
X190896Y167305*
X190650Y167126*
X190527Y166858*
Y166768*
X190650Y166500*
X190896Y166321*
X191265Y166231*
X124409Y191954D02*
Y189370D01*
Y191954D02*
X125215D01*
X125483Y191831*
X125573Y191708*
X125662Y191462*
Y191216*
X125573Y190969*
X125483Y190846*
X125215Y190723*
X124409*
X125036D02*
X125662Y189370D01*
X126646Y191954D02*
X127631D01*
X127094Y190969*
X127362*
X127541Y190846*
X127631Y190723*
X127720Y190354*
Y190108*
X127631Y189739*
X127452Y189493*
X127183Y189370*
X126915*
X126646Y189493*
X126557Y189616*
X126467Y189862*
X159016Y168358D02*
X158770Y168268D01*
X158524Y168089*
X158401Y167911*
Y167553*
X158524Y167374*
X158770Y167195*
X159016Y167105*
X159385Y167016*
X160000*
X160369Y167105*
X160615Y167195*
X160861Y167374*
X160984Y167553*
Y167911*
X160861Y168089*
X160615Y168268*
X160369Y168358*
X158401Y169342D02*
Y170326D01*
X159385Y169790*
Y170058*
X159508Y170237*
X159631Y170326*
X160000Y170416*
X160246*
X160615Y170326*
X160861Y170147*
X160984Y169879*
Y169611*
X160861Y169342*
X160738Y169253*
X160492Y169163*
X167090Y193701D02*
X167001Y193947D01*
X166822Y194193*
X166643Y194316*
X166285*
X166106Y194193*
X165927Y193947*
X165838Y193701*
X165748Y193332*
Y192717*
X165838Y192347*
X165927Y192101*
X166106Y191855*
X166285Y191732*
X166643*
X166822Y191855*
X167001Y192101*
X167090Y192347*
X167985Y193701D02*
Y193824D01*
X168074Y194070*
X168164Y194193*
X168343Y194316*
X168701*
X168880Y194193*
X168969Y194070*
X169059Y193824*
Y193578*
X168969Y193332*
X168790Y192963*
X167895Y191732*
X169148*
X150787Y158883D02*
Y157037D01*
X150877Y156668*
X151056Y156422*
X151324Y156299*
X151503*
X151772Y156422*
X151951Y156668*
X152040Y157037*
Y158883*
X152845Y158391D02*
X153024Y158514D01*
X153293Y158883*
Y156299*
X183071Y143529D02*
Y140945D01*
Y143529D02*
X183876D01*
X184145Y143406*
X184234Y143282*
X184324Y143036*
Y142790*
X184234Y142544*
X184145Y142421*
X183876Y142298*
X183071*
X183697D02*
X184324Y140945D01*
X185218Y142913D02*
Y143036D01*
X185308Y143282*
X185397Y143406*
X185576Y143529*
X185934*
X186113Y143406*
X186203Y143282*
X186292Y143036*
Y142790*
X186203Y142544*
X186024Y142175*
X185129Y140945*
X186382*
X177165Y143135D02*
Y140551D01*
Y143135D02*
X177971D01*
X178239Y143012*
X178329Y142889*
X178418Y142643*
Y142397*
X178329Y142151*
X178239Y142028*
X177971Y141905*
X177165*
X177792D02*
X178418Y140551D01*
X180118Y143135D02*
X179223Y141412D01*
X180565*
X180118Y143135D02*
Y140551D01*
X172047Y143787D02*
Y140945D01*
Y143787D02*
X172933D01*
X173228Y143652*
X173327Y143516*
X173425Y143246*
Y142975*
X173327Y142704*
X173228Y142569*
X172933Y142434*
X172047*
X172736D02*
X173425Y140945D01*
X175689Y143787D02*
X174705Y140945D01*
X174311Y143787D02*
X175689D01*
X166303Y127953D02*
X166213Y128199D01*
X166034Y128445*
X165855Y128568*
X165497*
X165319Y128445*
X165140Y128199*
X165050Y127953*
X164961Y127584*
Y126969*
X165050Y126599*
X165140Y126353*
X165319Y126107*
X165497Y125984*
X165855*
X166034Y126107*
X166213Y126353*
X166303Y126599*
X168182Y128199D02*
X168092Y128445D01*
X167824Y128568*
X167645*
X167377Y128445*
X167198Y128076*
X167108Y127461*
Y126845*
X167198Y126353*
X167377Y126107*
X167645Y125984*
X167734*
X168003Y126107*
X168182Y126353*
X168271Y126722*
Y126845*
X168182Y127215*
X168003Y127461*
X167734Y127584*
X167645*
X167377Y127461*
X167198Y127215*
X167108Y126845*
X175358Y109449D02*
X175268Y109695D01*
X175089Y109941*
X174911Y110064*
X174553*
X174374Y109941*
X174195Y109695*
X174105Y109449*
X174016Y109080*
Y108465*
X174105Y108095*
X174195Y107849*
X174374Y107603*
X174553Y107480*
X174911*
X175089Y107603*
X175268Y107849*
X175358Y108095*
X177416Y110064D02*
X176521Y107480D01*
X176163Y110064D02*
X177416D01*
X194882Y155601D02*
X194759D01*
X194513Y155691*
X194390Y155780*
X194267Y155959*
Y156317*
X194390Y156496*
X194513Y156586*
X194759Y156675*
X195005*
X195251Y156586*
X195620Y156407*
X196850Y155512*
Y156764*
X194267Y158107D02*
X194390Y157838D01*
X194759Y157659*
X195374Y157570*
X195743*
X196358Y157659*
X196727Y157838*
X196850Y158107*
Y158286*
X196727Y158554*
X196358Y158733*
X195743Y158822*
X195374*
X194759Y158733*
X194390Y158554*
X194267Y158286*
Y158107*
X194759Y159628D02*
X194636Y159807D01*
X194267Y160075*
X196850*
X194267Y162044D02*
Y161149D01*
X195374Y161059*
X195251Y161149*
X195128Y161417*
Y161686*
X195251Y161954*
X195497Y162133*
X195866Y162223*
X196112Y162133*
X196481Y162044*
X196727Y161865*
X196850Y161596*
Y161328*
X196727Y161059*
X196604Y160970*
X196358Y160880*
X194267Y165981D02*
X196235D01*
X196604Y165891*
X196727Y165802*
X196850Y165623*
Y165444*
X196727Y165265*
X196604Y165175*
X196235Y165086*
X195989*
X195743Y166786D02*
Y168397D01*
X194267Y169739D02*
X194390Y169560D01*
X194636Y169381*
X194882Y169291*
X195251Y169202*
X195866*
X196235Y169291*
X196481Y169381*
X196727Y169560*
X196850Y169739*
Y170097*
X196727Y170276*
X196481Y170455*
X196235Y170544*
X195866Y170634*
X195866D02*
X195251D01*
X195251D02*
X194882Y170544D01*
X194636Y170455*
X194390Y170276*
X194267Y170097*
Y169739*
X195128Y171439D02*
X197712D01*
X195497D02*
X195251Y171618D01*
X195128Y171797*
Y172065*
X195251Y172244*
X195497Y172423*
X195866Y172513*
X196112*
X196481Y172423*
X196727Y172244*
X196850Y172065*
Y171797*
X196727Y171618*
X196481Y171439*
X195866Y173318D02*
Y174392D01*
X195620*
X195374Y174302*
X195251Y174213*
X195128Y174034*
Y173765*
X195251Y173586*
X195497Y173407*
X195866Y173318*
X196112*
X196481Y173407*
X196727Y173586*
X196850Y173765*
Y174034*
X196727Y174213*
X196481Y174392*
X195128Y175197D02*
X196850D01*
X195866D02*
X195497Y175286D01*
X195251Y175465*
X195128Y175644*
Y175913*
Y177792D02*
X196850D01*
X195497D02*
X195251Y177613D01*
X195128Y177434*
Y177165*
X195251Y176986*
X195497Y176807*
X195866Y176718*
X196112*
X196481Y176807*
X196727Y176986*
X196850Y177165*
Y177434*
X196727Y177613*
X196481Y177792*
X194267Y178865D02*
X196358D01*
X196727Y178955*
X196850Y179134*
Y179313*
X195128Y178597D02*
Y179223D01*
Y180565D02*
X195251Y180387D01*
X195497Y180208*
X195866Y180118*
X196112*
X196481Y180208*
X196727Y180387*
X196850Y180565*
X196850D02*
Y180834D01*
X196727Y181013*
X196481Y181192*
X196112Y181281*
X195866*
X195497Y181192*
X195251Y181013*
X195128Y180834*
Y180565*
Y182087D02*
X196850D01*
X195866D02*
X195497Y182176D01*
X195251Y182355*
X195128Y182534*
Y182802*
X194267Y185666D02*
X196850D01*
X194267D02*
Y186292D01*
X194390Y186560*
X194636Y186739*
X194882Y186829*
X195251Y186918*
X195866*
X196235Y186829*
X196481Y186739*
X196727Y186560*
X196850Y186292*
Y185666*
X195866Y187724D02*
Y188797D01*
X195620*
X195374Y188708*
X195251Y188618*
X195128Y188440*
Y188171*
X195251Y187992*
X195497Y187813*
X195866Y187724*
X196112*
X196481Y187813*
X196727Y187992*
X196850Y188171*
Y188440*
X196727Y188618*
X196481Y188797*
X195497Y190587D02*
X195251Y190497D01*
X195128Y190229*
Y189961*
X195251Y189692*
X195497Y189603*
X195743Y189692*
X195866Y189871*
X195989Y190319*
X196112Y190497*
X196358Y190587*
X196481*
X196727Y190497*
X196850Y190229*
Y189961*
X196727Y189692*
X196481Y189603*
X194267Y191392D02*
X194390Y191482D01*
X194267Y191571*
X194144Y191482*
X194267Y191392*
X195128Y191482D02*
X196850D01*
X195128Y193450D02*
X197096D01*
X197466Y193361*
X197589Y193271*
X197712Y193092*
Y192824*
X197589Y192645*
X195497Y193450D02*
X195251Y193271D01*
X195128Y193092*
Y192824*
X195251Y192645*
X195497Y192466*
X195866Y192377*
X196112*
X196481Y192466*
X196727Y192645*
X196850Y192824*
Y193092*
X196727Y193271*
X196481Y193450*
X195128Y194256D02*
X196850D01*
X195620D02*
X195251Y194524D01*
X195128Y194703*
Y194971*
X195251Y195150*
X195620Y195240*
X196850*
X195497Y197029D02*
X195251Y196940D01*
X195128Y196671*
Y196403*
X195251Y196135*
X195497Y196045*
X195743Y196135*
X195866Y196314*
X195989Y196761*
X196112Y196940*
X196358Y197029*
X196481*
X196727Y196940*
X196850Y196671*
Y196403*
X196727Y196135*
X196481Y196045*
X194267Y129921D02*
X196112D01*
X196481Y130011*
X196727Y130190*
X196850Y130458*
Y130637*
X196727Y130906*
X196481Y131084*
X196112Y131174*
X194267*
X194636Y133232D02*
X194390Y133053D01*
X194267Y132785*
Y132427*
X194390Y132158*
X194636Y131979*
X194882*
X195128Y132069*
X195251Y132158*
X195374Y132337*
X195620Y132874*
X195743Y133053*
X195866Y133142*
X196112Y133232*
X196481*
X196727Y133053*
X196850Y132785*
Y132427*
X196727Y132158*
X196481Y131979*
X194267Y134037D02*
X196850D01*
X194267D02*
Y134843D01*
X194390Y135111*
X194513Y135200*
X194759Y135290*
X195005*
X195251Y135200*
X195374Y135111*
X195497Y134843*
Y134037D02*
Y134843D01*
X195620Y135111*
X195743Y135200*
X195989Y135290*
X196358*
X196604Y135200*
X196727Y135111*
X196850Y134843*
Y134037*
X194267Y138153D02*
X196850D01*
X194267D02*
Y138958D01*
X194390Y139227*
X194513Y139316*
X194759Y139406*
X195128*
X195374Y139316*
X195497Y139227*
X195620Y138958*
Y138153*
X194882Y141553D02*
X194636Y141464D01*
X194390Y141285*
X194267Y141106*
Y140748*
X194390Y140569*
X194636Y140390*
X194882Y140301*
X195251Y140211*
X195866*
X196235Y140301*
X196481Y140390*
X196727Y140569*
X196850Y140748*
Y141106*
X196727Y141285*
X196481Y141464*
X196235Y141553*
X194267Y142359D02*
X196850D01*
X194267D02*
Y143164D01*
X194390Y143432*
X194513Y143522*
X194759Y143611*
X195005*
X195251Y143522*
X195374Y143432*
X195497Y143164*
Y142359D02*
Y143164D01*
X195620Y143432*
X195743Y143522*
X195989Y143611*
X196358*
X196604Y143522*
X196727Y143432*
X196850Y143164*
Y142359*
X195128Y146475D02*
X196850Y147011D01*
X195128Y147548D02*
X196850Y147011D01*
X194759Y148354D02*
X194636Y148533D01*
X194267Y148801*
X196850*
X194267Y150143D02*
X194390Y149875D01*
X194759Y149696*
X195374Y149606*
X195743*
X196358Y149696*
X196727Y149875*
X196850Y150143*
Y150322*
X196727Y150591*
X196358Y150770*
X195743Y150859*
X195374*
X194759Y150770*
X194390Y150591*
X194267Y150322*
Y150143*
Y152559D02*
X195989Y151664D01*
Y153006*
X194267Y152559D02*
X196850D01*
X194267Y101575D02*
X196850D01*
X194267D02*
Y102201D01*
X194390Y102470*
X194636Y102649*
X194882Y102738*
X195251Y102827*
X195866*
X196235Y102738*
X196481Y102649*
X196727Y102470*
X196850Y102201*
Y101575*
X194267Y103633D02*
X194390Y103722D01*
X194267Y103812*
X194144Y103722*
X194267Y103633*
X195128Y103722D02*
X196850D01*
X195128Y105691D02*
X197096D01*
X197466Y105601*
X197589Y105512*
X197712Y105333*
Y105064*
X197589Y104885*
X195497Y105691D02*
X195251Y105512D01*
X195128Y105333*
Y105064*
X195251Y104885*
X195497Y104707*
X195866Y104617*
X196112*
X196481Y104707*
X196727Y104885*
X196850Y105064*
Y105333*
X196727Y105512*
X196481Y105691*
X194267Y106496D02*
X194390Y106586D01*
X194267Y106675*
X194144Y106586*
X194267Y106496*
X195128Y106586D02*
X196850D01*
X194267Y107749D02*
X196358D01*
X196727Y107838*
X196850Y108017*
Y108196*
X195128Y107480D02*
Y108107D01*
Y110075D02*
X196850D01*
X195497D02*
X195251Y109896D01*
X195128Y109717*
Y109449*
X195251Y109270*
X195497Y109091*
X195866Y109001*
X196112*
X196481Y109091*
X196727Y109270*
X196850Y109449*
Y109717*
X196727Y109896*
X196481Y110075*
X194267Y110880D02*
X196850D01*
X194267Y113744D02*
X196850D01*
X194267D02*
X196850Y114460D01*
X194267Y115175D02*
X196850Y114460D01*
X194267Y115175D02*
X196850D01*
X194267Y115981D02*
X196850D01*
X194267D02*
Y117144D01*
X195497Y115981D02*
Y116696D01*
X196850Y115981D02*
Y117144D01*
X194267Y117949D02*
X196850D01*
X194267D02*
X196850Y118665D01*
X194267Y119381D02*
X196850Y118665D01*
X194267Y119381D02*
X196850D01*
X195497Y121170D02*
X195251Y121081D01*
X195128Y120812*
Y120544*
X195251Y120276*
X195497Y120186*
X195743Y120276*
X195866Y120455*
X195989Y120902*
X196112Y121081*
X196358Y121170*
X196481*
X196727Y121081*
X196850Y120812*
Y120544*
X196727Y120276*
X196481Y120186*
X194267Y124302D02*
X196358D01*
X196727Y124392*
X196850Y124571*
Y124749*
X195128Y124034D02*
Y124660D01*
Y126002D02*
X195251Y125823D01*
X195497Y125644*
X195866Y125555*
X196112*
X196481Y125644*
X196727Y125823*
X196850Y126002*
Y126271*
X196727Y126450*
X196481Y126628*
X196112Y126718*
X195866*
X195497Y126628*
X195251Y126450*
X195128Y126271*
Y126002*
G54D84*
X104983Y148819D02*
X105044Y148729D01*
X105229Y148595*
X103937*
G74*
X0Y0D02*
M02*
